<svg height="62" viewBox="0 0 173 62" width="173" xmlns="http://www.w3.org/2000/svg"><g fill="#fff"><path d="m105.346 31.134c0 11.761-9.569 21.329-21.331 21.329-11.76 0-21.328-9.568-21.328-21.329s9.568-21.329 21.328-21.329c11.762 0 21.331 9.568 21.331 21.329zm-21.331-30.166c-16.632 0-30.164 13.533-30.164 30.166 0 16.634 13.532 30.166 30.164 30.166 16.634 0 30.167-13.532 30.167-30.166 0-16.633-13.533-30.166-30.167-30.166zm-74.868 9.478v6.708c0 2.479 1.453 4.688 3.7 5.627 3.949 1.649 8.6 1.896 13.097 2.136 1.179.062 2.38.126 3.579.216l1.534-.803c2.4315357-1.2661729 3.9551075-3.7815509 3.951-6.523 0-4.059-3.303-7.361-7.362-7.361zm20.64 50.588h-29.673v-26.469l6.292 2.67c1.66189408.7051913 2.7411418 2.3356782 2.741 4.141v10.625h20.783c4.636 0 8.695-3.451 9.088-8.07.404-4.752-2.943-8.926-7.466-9.522-1.884-.248-3.926-.357-6.088-.472-5.019-.266-10.707-.57-16.099-2.82-5.62-2.349-9.251-7.829-9.251-13.963v-15.742h27.184c8.478 0 15.825 6.3 16.661 14.736.449 4.531-.961 8.868-3.72 12.168 5.3340672 3.6332629 8.30749 9.8500378 7.788 16.283-.743 9.362-8.849 16.435-18.24 16.435zm104.329-24.286h18.208c.408 0 .689-.41.542-.791l-9.646-24.899-9.646 24.899c-.069823.1787769-.046685.3805184.061802.5388445.108486.158326.288271.2527322.480198.2521555zm38.402 24.286h-8.219c-1.040426.0001707-1.973819-.6395745-2.349-1.61l-5.248-13.574h-26.965l-5.247 13.574c-.375646.9700578-1.308749 1.6096047-2.349 1.61h-8.299l23.52-59.545h11.635zm-5.713-58.614c-2.016944 0-3.652 1.63505609-3.652 3.652s1.635056 3.652 3.652 3.652 3.652-1.63505609 3.652-3.652-1.635056-3.652-3.652-3.652zm4.759 3.652c.024886 1.71684716-.876787 3.31403685-2.359611 4.1797249-1.482824.8656881-3.316954.8656881-4.799778 0-1.482824-.86568805-2.384497-2.46287774-2.359611-4.1797249.037713-2.60169877 2.157528-4.69100906 4.7595-4.69100906s4.721787 2.08931029 4.7595 4.69100906z"/><path d="m166.176 4.959h.888c.388 0 .611.155.611.425 0 .19-.106.417-.611.417h-.888zm.203 1.715 1.123 1.415h1.266l-1.257-1.459.097-.018c.747-.136 1.175-.583 1.175-1.228 0-.845-.635-1.35-1.699-1.35h-1.997v4.055h1.089v-1.437h.186z"/></g></svg>