<svg height="110" viewBox="0 0 200 110" width="200" xmlns="http://www.w3.org/2000/svg"><g fill="#fff"><path d="m162.327 65.317c-5.086 0-9.222 4.144-9.222 9.24 0 5.093 4.136 9.238 9.222 9.238 1.068876.0015696 2.129814-.1835446 3.135-.547 3.636-1.32 6.08-4.81 6.08-8.692 0-5.095-4.134-9.238-9.215-9.238zm0 24.2c-8.232 0-14.933-6.71-14.933-14.96s6.7-14.962 14.933-14.962c8.23 0 14.926 6.71 14.926 14.96 0 6.283-3.957 11.937-9.85 14.074-1.626.59-3.338.887-5.076.887z"/><path d="m136.95 24.127c-1.005159.3635548-2.066115.5486722-3.135.547-5.085 0-9.22-4.144-9.22-9.24 0-5.092 4.135-9.237 9.22-9.237 3.575 0 6.674 2.055 8.203 5.044l4.723-3.255c-2.58-4.48-7.402-7.51-12.925-7.51-8.233 0-14.934 6.71-14.934 14.96 0 8.252 6.702 14.962 14.935 14.962 1.743 0 3.45-.298 5.078-.888 3.310187-1.2060819 6.087228-3.5438969 7.84-6.6l-4.73-3.25c-1.059746 2.0733394-2.864498 3.6691086-5.052 4.467z"/><path d="m65.793 59.458h-5.71v-14.442c0-8.588 6.053-15.067 14.077-15.067 8.053 0 14.127 6.41 14.127 14.906v14.582h-5.71v-14.581c0-5.32-3.54-9.182-8.417-9.182-5.49 0-8.367 4.698-8.367 9.342z"/><path d="m30.093 83.392h30.042v5.724h-30.042z"/><path d="m18.796 24.127c-1.0068175.3638302-2.0694627.548947-3.14.547-5.08 0-9.218-4.144-9.218-9.24 0-5.093 4.138-9.237 9.22-9.237 3.576 0 6.675 2.054 8.204 5.044l4.724-3.255c-2.582-4.48-7.402-7.51-12.93-7.51-8.229-.001-14.926 6.709-14.926 14.959 0 8.252 6.697 14.962 14.93 14.962 1.744 0 3.453-.3 5.08-.89 3.3088188-1.2073935 6.0852571-3.543993 7.84-6.598l-4.73-3.25c-1.0609397 2.0724132-2.8652706 3.6678103-5.052 4.467z"/></g></svg>