<svg fill="none" height="81" viewBox="0 0 226 81" width="226" xmlns="http://www.w3.org/2000/svg"><g fill="#fff"><path d="m109.417.92549v34.47451c.226 5.7843-1.809 11.1059-5.653 15.2706-1.809 1.851-4.0705 3.4706-6.558 4.6274-2.4874 1.1569-5.201 1.6196-7.9145 1.6196h-.2262c-.4522 0-.6784 0-1.1306 0-2.0352-.2313-4.0704-.9254-6.1056-2.0823-2.0351-1.1569-3.618-2.5451-5.201-4.3961-3.1658-3.7019-4.9748-8.3294-4.9748-13.1882v-37.019627h-5.6533v.694117 35.63141c0 6.0156 2.2613 11.8 6.5578 15.9647 4.0703 4.1647 9.7236 6.4784 15.603 6.4784 2.9397 0 6.5578-.6941 9.2714-1.851 2.7138-1.1568 4.9748-2.7765 7.0098-4.8588 4.297-4.1647 6.558-9.949 6.558-15.9647v-36.3255h-2.035z"/><path d="m199.111 0h-1.111-18.222-3.778v81h5.778v-76.85795c0-.92046.444-1.38069 1.111-1.84091.444-.23012 1.111-.46023 1.333-.46023h13.778c5.778 0 11.111 2.53125 15.111 7.36364 4 4.83235 6.222 11.04545 6.222 17.71875s-2.222 13.1165-6.222 17.7187c-4 4.6023-9.333 7.3637-15.111 7.3637h-.667v2.071h1.778c14.445 0 26.889-12.196 26.889-27.1534-.222-14.7273-12.444-26.9233-26.889-26.9233z"/><path d="m55.7776 35.913.2224-.4664h-3.1142v.2332c-.4449 5.1305-2.4469 9.7945-5.7835 13.2925-2.002 2.0989-4.2264 3.4981-6.6733 4.6641-2.4469.9328-5.1162 1.3992-8.0079 1.3992-7.1182 0-14.2364-3.2648-19.7975-9.0949-2.4468-2.5652-4.67127-5.5968-6.00592-9.0948-1.33466-3.2649-2.22443-6.5297-2.44688-9.7945-.22244-3.2648 0-6.5297 1.11222-9.5613.88977-3.0316 2.44687-5.83 4.6713-7.92883 2.00198-2.09882 4.22638-3.49803 6.67328-4.66404 2.4469-.9328 5.1162-1.39921 8.008-1.39921 7.1181 0 14.2363 3.26483 19.7974 9.09488 2.6693 2.7984 4.6713 5.83 6.2284 9.328l.2224.2333h4.6713l-.2224-.4665c-1.3347-4.8972-3.7816-9.5612-7.3406-13.29244-2.6694-2.56522-5.7836-4.89724-9.1202-6.29645-3.3366-1.399205-6.8957-2.09881-10.6773-2.09881-3.7815 0-7.3406.699605-10.6772 2.09881-3.5591 1.39921-6.6733 3.73123-9.34262 6.52965-10.89971 11.42684-10.89971 30.31624 0 41.74304 2.66932 2.7985 5.78352 4.8973 9.34262 6.5297 3.3366 1.3992 6.8957 2.0988 10.6772 2.0988 3.5591 0 7.3407-.6996 10.6773-2.0988 3.5591-1.3992 6.6733-3.7312 9.3426-6.5297 3.7815-3.9644 6.2284-8.8616 7.5631-14.4585z"/><path d="m164.417.92549v34.47451c.226 5.7843-1.809 11.1059-5.653 15.2706-1.809 1.851-4.071 3.4706-6.558 4.6274-2.487 1.1569-5.201 1.6196-7.915 1.6196h-.226c-.452 0-.678 0-1.13 0-2.036-.2313-4.071-.9254-6.106-2.0823s-3.618-2.5451-5.201-4.3961c-3.166-3.7019-4.975-8.3294-4.975-13.1882v-37.019627h-5.653v.694117 35.63141c0 6.0156 2.261 11.8 6.558 15.9647 4.07 4.1647 9.723 6.4784 15.603 6.4784 2.94 0 6.558-.6941 9.271-1.851 2.714-1.1568 4.975-2.7765 7.01-4.8588 4.297-4.1647 6.558-9.949 6.558-15.9647v-36.3255h-2.035z"/></g></svg>