<svg fill="none" height="126" viewBox="0 0 333 126" width="333" xmlns="http://www.w3.org/2000/svg"><g fill="#fff"><path d="m196.94 14.6267-12.005 8.8746 8.404-13.1475c1.2 1.3147 2.572 2.7938 3.601 4.2729zm3.087 3.9443.857.9861c.858 1.1504 1.544 2.3008 2.23 3.4513l-16.978 1.6434zm3.772 8.5461 1.201.1643s0 .4931-.343 1.8079c-.343 1.9719-1.886 3.1224-3.944 3.1224-1.715-.1643-3.087-1.3148-3.43-2.6296-1.715-.4931-3.258-.9859-4.63-1.479-1.715-.6574-3.259-1.3148-4.631-2.1365zm-31.382-11.6686 5.659 15.9415-1.372 3.1225-8.575-19.2284h4.288zm10.975 7.2311 1.372-17.58488c2.058-1.80781 4.63-3.77996 7.031-5.09472zm-3.087-14.29797 1.372 16.10587-1.543 3.287-4.116-15.6129c1.2-1.1505 2.744-2.4652 4.287-3.77997zm-9.432 38.45687-5.316 12.1615-14.234-32.5403 5.316-12.1616zm-23.323 0-5.316 12.1615-14.234-32.5403 5.316-12.1616z"/><path d="m326.727 95.4508c2.092 0 3.311-.7861 3.311-2.7936 0-2.0058-1.219-3.1411-3.311-3.1411h-10.365v5.9347zm-13.416-15.4508h13.067c3.571 0 5.314 1.5722 5.314 4.4502 0 1.4845-.522 2.6198-1.654 3.3182 2.004 1.1354 2.962 2.7059 2.962 4.7995 0 3.2288-2.265 5.4117-6.098 5.4117h-13.591zm12.284 7.1578c1.83 0 3.224-.6124 3.224-2.1813 0-1.746-1.306-2.6182-3.224-2.6182h-9.233v4.7995zm-189.694-4.6257h-6.447v12.9187h6.447c2.786 0 4.791-.4369 6.011-1.3107 1.306-1.0476 2.003-2.7936 2.003-5.2363 0-2.4461-.697-4.0167-2.003-5.0643-1.22-.8705-3.225-1.3074-6.011-1.3074zm.436-2.5321c3.049 0 5.401.4369 6.883 1.3968 2.613 1.746 3.746 4.5396 3.746 7.5086 0 3.492-1.219 6.0208-3.746 7.6791-1.393.8738-3.659 1.3968-6.883 1.3968h-9.932v-17.9813zm150.144 15.4508c2.089 0 3.31-.7861 3.31-2.7936 0-2.0058-1.221-3.1411-3.31-3.1411h-10.367v5.9347zm-13.418-15.4508h13.068c3.572 0 5.315 1.5722 5.315 4.4502 0 1.4845-.522 2.6198-1.655 3.3182 2.004 1.1354 2.96 2.7059 2.96 4.7995 0 3.2288-2.263 5.4117-6.095 5.4117h-13.593zm12.283 7.1578c1.829 0 3.223-.6124 3.223-2.1813 0-1.746-1.307-2.6182-3.223-2.6182h-9.234v4.7995zm-50.963 10.8218v-17.9796h17.686v2.5321h-14.635v4.8011h13.675v2.5304h-13.675v5.5872h14.635v2.5288zm-33.189-13.5294-5.228 13.5294h-2.441l-6.531-17.9796h3.049l4.79 14.2295 5.491-14.2295h1.741l5.401 14.2295 4.876-14.2295h2.963l-6.447 17.9796h-2.439zm-96.829-4.4502h3.049v17.9796h-3.049zm-26.9177 15.0139 7.9269-15.0139h3.2226l-9.843 17.9796h-2.7006l-9.7588-17.9796h3.1368zm-28.2274-3.7535-4.7918-8.9021-4.7043 8.9021zm-16.1148 6.7192 9.7554-17.9796h3.2243l9.7571 17.9796h-3.1351l-2.3521-4.4502h-11.7607l-2.3538 4.4502zm-23.60898-15.4475h-6.44692v12.9187h6.44692c2.78658 0 4.79018-.4369 6.01088-1.3107 1.3065-1.0476 2.0019-2.7936 2.0019-5.2363 0-2.4461-.6954-4.0167-2.0019-5.0643-1.2207-.8705-3.2243-1.3074-6.01088-1.3074zm.43442-2.5321c3.04916 0 5.40136.4369 6.88296 1.3968 2.6148 1.746 3.7463 4.5396 3.7463 7.5086 0 3.492-1.2207 6.0208-3.7463 7.6791-1.3957.8738-3.6603 1.3968-6.88296 1.3968h-9.93054v-17.9813z"/><path d="m138.577 125.738h-.609l-8.016-9.951v8.03c0 1.223.436 1.572 1.48 1.572v.349h-3.571v-.349c.958 0 1.394-.261 1.394-1.921v-6.807c0-1.309-.349-2.095-1.743-2.183v-.348h3.135l7.232 8.992v-6.723c0-1.57-.349-1.921-1.395-1.921v-.348h3.572v.348c-1.134 0-1.48.437-1.48 1.834v9.426zm8.712-4.713c.086-1.571-.958-2.181-1.829-2.181-1.22 0-1.83.872-1.917 2.181zm27.965 2.53c0 1.397.35 1.832 1.308 1.832v.35h-4.268v-.35c.958 0 1.48-.175 1.48-1.832v-3.665l-2.528-3.841c-.784-1.31-1.133-1.573-2.003-1.573v-.347h4.531v.347c-1.309 0-1.395.437-.959 1.136l2.178 3.49 1.828-2.88c.61-.872.61-1.747-.348-1.747v-.348h3.31v.348c-.958.087-1.219.263-1.916 1.31l-2.615 4.103v3.667zm7.842 2.445c-2.264 0-4.009-1.658-4.009-3.841s1.745-3.754 4.009-3.754c2.265 0 4.007 1.571 4.007 3.754s-1.742 3.841-4.007 3.841zm0-7.158c-1.481 0-2.354 1.309-2.354 3.317 0 1.921.697 3.316 2.354 3.316 1.743 0 2.352-1.572 2.352-3.316 0-1.745-.697-3.317-2.352-3.317zm8.451 5.587c0 .785.259.96 1.217.96v.349h-3.92v-.349c1.134 0 1.219-.261 1.219-1.309v-3.929c0-1.047-.261-1.221-1.48-1.221v-.349l2.614-.174h.35v1.57c1.306-1.223 2.002-1.57 2.438-1.57s.959.174 1.308.523l-.522 1.397c-.609-.35-1.221-.523-1.657-.523-.522 0-.958.173-1.566.872v3.753zm7.839 0c0 .785.261.96 1.219.96v.349h-4.007v-.349c1.133 0 1.306-.175 1.306-1.309v-9.514c0-.873-.173-.962-1.306-.962v-.347l2.44-.262h.348zm4.356.086c.611.697 1.047.872 1.744.872v.35h-2.44l-3.66-3.58v-.174l1.916-1.746c.785-.698.785-1.309-.436-1.309v-.349h4.009v.349h-.349c-.609 0-1.306.262-1.917.872l-1.916 1.746zm-57.411.786c.87 0 1.567-.349 2.352-1.309l.348.262c-.87 1.135-1.742 1.746-3.135 1.746-2.266 0-4.009-1.571-4.009-3.754s1.656-3.841 3.747-3.841c1.655 0 3.31 1.397 3.136 3.141h-5.227c0 3.232 1.83 3.755 2.788 3.755zm8.363-1.396 1.742-4.189c-.347-.612-.609-.786-1.131-.786v-.349h3.484v.349c-.871 0-1.046.437-.785 1.047l1.655 3.928 1.48-3.754c.349-.872.175-1.221-.783-1.221v-.349h2.874v.349c-.958 0-1.131.174-1.655 1.309l-2.177 5.673h-.522l-2.265-5.499-2.178 5.499h-.522l-2.44-6.198c-.263-.437-.611-.786-1.394-.786v-.349h3.659v.349c-.871 0-.871.262-.61 1.048z"/></g></svg>