<svg viewBox="0 0 113 29" fill="none" xmlns="http://www.w3.org/2000/svg"><path d="M0 0.52002H3.85872V25.8397L16.6026 25.8295V27.7179H0V0.52002Z" fill="#FFFFFF"></path><path d="M64.2363 0.519531H68.0951L68.0849 25.8392L80.8289 25.8291V27.7174H64.2363V0.519531Z" fill="#FFFFFF"></path><path d="M113 27.7171H109.131L104.592 17.2603H94.9961L90.8632 27.7171H88.7307L99.7687 0.00146484H101.089L113 27.7171ZM95.7373 15.4024H103.861L99.6468 5.68672L95.7373 15.4024Z" fill="#FFFFFF"></path><path d="M24.8483 8.18403C25.5286 6.49522 26.5681 4.97448 27.8947 3.72721C29.2463 2.48163 30.8446 1.53392 32.5861 0.945505C34.5192 0.295666 36.5481 -0.0235297 38.5874 0.00134988C40.6333 -0.0231056 42.6688 0.29605 44.609 0.945505C46.3494 1.53146 47.9475 2.47561 49.3004 3.71706C50.6268 4.96454 51.6662 6.48522 52.3468 8.17388C53.1011 10.0966 53.467 12.1496 53.4232 14.2144C53.4586 16.2664 53.0894 18.3052 52.3366 20.2144C51.6664 21.9123 50.623 23.438 49.2837 24.6786C47.9444 25.9192 46.3433 26.843 44.5989 27.3819C42.6513 27.9949 40.619 28.2964 38.5772 28.2753C36.549 28.2936 34.5305 27.9921 32.5962 27.3819C30.8499 26.8444 29.2468 25.9211 27.9057 24.6804C26.5645 23.4398 25.5196 21.9134 24.8483 20.2144C24.0915 18.306 23.7189 16.2671 23.7516 14.2144C23.7159 12.1625 24.0851 10.1237 24.8382 8.21449L24.8483 8.18403ZM48.7419 8.4886C48.2605 7.01924 47.4712 5.66943 46.4267 4.52924C45.4531 3.5026 44.2586 2.71104 42.9335 2.21453C40.144 1.21078 37.0917 1.21078 34.3022 2.21453C32.9808 2.71239 31.7898 3.50388 30.8192 4.52924C29.7478 5.6618 28.9338 7.01239 28.4329 8.4886C27.8408 10.3242 27.5594 12.2456 27.6002 14.1738C27.5581 16.1021 27.8395 18.0238 28.4329 19.8591C28.9093 21.3306 29.6992 22.6815 30.7481 23.8184C31.7165 24.8488 32.9079 25.6441 34.2311 26.1433C37.0208 27.1462 40.0728 27.1462 42.8625 26.1433C44.1891 25.6451 45.384 24.8498 46.3556 23.8184C47.4288 22.6872 48.243 21.3362 48.7419 19.8591C49.3323 18.0231 49.6137 16.1019 49.5746 14.1738C49.6133 12.2458 49.3319 10.3246 48.7419 8.4886Z" fill="#FFFFFF"></path></svg>
