<?xml version="1.0" encoding="UTF-8"?>
<svg width="137px" height="32px" viewBox="0 0 137 32" version="1.1" xmlns="http://www.w3.org/2000/svg" xmlns:xlink="http://www.w3.org/1999/xlink">
    <!-- Generator: Sketch 53.2 (72643) - https://sketchapp.com -->
    <title>logo copy</title>
    <desc>Created with Sketch.</desc>
    <g id="Page-1" stroke="none" stroke-width="1" fill="none" fill-rule="evenodd">
        <g id="logo-copy" fill="#FFFFFF" fill-rule="nonzero">
            <path d="M136.583,27.1992 L126.176,18.3266 L131.107,13.9619 C131.487,13.5718 131.778,13.105 131.958,12.5934 C132.139,12.0819 132.205,11.5378 132.152,10.9987 C132.099,10.4595 131.929,9.938 131.653,9.47004 C131.377,9.00207 131.001,8.59874 130.552,8.28777 L125.415,4.15098 C124.63,3.59351 123.676,3.31647 122.71,3.36539 C121.744,3.4143 120.824,3.78625 120.101,4.42014 L114.455,9.67236 C114.04,10.0388 113.708,10.487 113.478,10.9882 C113.249,11.4893 113.129,12.0323 113.125,12.5822 L113.125,30.8364 C113.125,30.9608 113.154,31.0835 113.21,31.1948 C113.266,31.306 113.348,31.4026 113.449,31.4769 C113.55,31.5512 113.667,31.601 113.791,31.6225 C113.915,31.6439 114.043,31.6363 114.163,31.6003 L114.183,31.6003 C114.598,31.4627 114.98,31.2424 115.305,30.9528 L119.723,26.9567 C120.063,26.661 120.336,26.297 120.524,25.8889 C120.711,25.4808 120.807,25.038 120.808,24.59 L120.808,23.0793 L120.734,22.3301 L131.755,31.7045 C131.985,31.8931 132.276,31.9941 132.575,31.9892 C132.874,31.9843 133.161,31.8739 133.385,31.6779 L136.514,29.0978 C136.659,28.9868 136.778,28.8457 136.862,28.6844 C136.945,28.5231 136.992,28.3455 136.999,28.1644 C137.005,27.9832 136.971,27.8029 136.9,27.6361 C136.828,27.4693 136.72,27.3201 136.583,27.1992 Z M120.822,9.74025 C120.823,9.63937 120.844,9.53965 120.884,9.44684 C120.924,9.35403 120.983,9.26997 121.056,9.19951 C121.223,9.04238 121.443,8.95138 121.674,8.94378 C121.904,8.93618 122.13,9.01251 122.307,9.15829 L125.555,11.8887 C125.656,11.9699 125.738,12.0722 125.794,12.1882 C125.851,12.3043 125.881,12.4312 125.882,12.5599 C125.883,12.6887 125.855,12.8161 125.801,12.9331 C125.747,13.0501 125.667,13.1539 125.567,13.2369 L120.822,17.5774 L120.822,9.74025 Z" id="Shape"></path>
            <path d="M63.1709,5.04587 C63.2633,4.97652 63.3387,4.88752 63.3915,4.78547 C63.4443,4.68342 63.4732,4.57094 63.4761,4.45636 C63.4789,4.34177 63.4556,4.22803 63.4079,4.12356 C63.3601,4.01909 63.2892,3.92656 63.2004,3.85285 L58.8043,0.184049 C58.6656,0.0681849 58.4907,0.00320883 58.3091,0.00011575 C58.1275,-0.00297733 57.9504,0.0560026 57.8078,0.167075 L53.2522,3.71463 C53.1616,3.78514 53.0881,3.87477 53.0371,3.97697 C52.9861,4.07916 52.959,4.19132 52.9575,4.30524 C52.9561,4.41916 52.9805,4.53195 53.029,4.63534 C53.0774,4.73874 53.1486,4.83013 53.2374,4.9028 L56.7793,7.81262 L52.9748,11.3287 C52.5611,11.7111 52.2313,12.1733 52.0059,12.6868 C51.7804,13.2002 51.6641,13.754 51.6641,14.3136 L51.6641,30.6499 C51.6641,30.8955 51.7628,31.1311 51.9387,31.3048 C52.1145,31.4785 52.353,31.5761 52.6017,31.5761 L58.3699,31.5761 C58.6185,31.5761 58.857,31.4785 59.0329,31.3048 C59.2087,31.1311 59.3075,30.8955 59.3075,30.6499 L59.3075,7.95084 L63.1709,5.04587 Z" id="Path"></path>
            <path d="M51.3892,7.78335 L46.5857,4.38857 C45.9117,3.92232 45.1172,3.65532 44.2952,3.61882 C43.4733,3.58232 42.6578,3.77782 41.9441,4.18245 L36.1588,8.61993 C35.4437,9.15956 34.8644,9.85495 34.4659,10.652 C34.0674,11.449 33.8605,12.3261 33.8613,13.215 L33.8613,27.7108 C33.8613,29.8495 35.7047,31.5905 37.9776,31.5905 L48.4266,31.5905 C48.6807,31.5964 48.9268,31.5024 49.1109,31.3292 C49.295,31.156 49.402,30.9177 49.4084,30.6667 L49.4084,26.5711 C49.402,26.32 49.295,26.0818 49.1109,25.9085 C48.9268,25.7353 48.6807,25.6414 48.4266,25.6472 L41.3845,25.6472 L41.3845,19.9658 L44.3299,22.0269 C44.474,22.1265 44.6475,22.1758 44.8231,22.1671 C44.9987,22.1583 45.1664,22.0919 45.2995,21.9784 L49.1703,18.6394 C49.2546,18.5672 49.3218,18.4774 49.367,18.3766 C49.4121,18.2757 49.4342,18.1663 49.4316,18.056 C49.4291,17.9458 49.4019,17.8374 49.352,17.7388 C49.3022,17.6401 49.2309,17.5535 49.1433,17.4852 L45.3363,14.4808 C45.1942,14.3701 45.018,14.3109 44.8371,14.3131 C44.6562,14.3153 44.4815,14.3788 44.3422,14.4929 L41.3968,16.9178 L41.3968,9.25524 C41.4015,9.1565 41.4338,9.06098 41.49,8.97923 C41.5463,8.89749 41.6243,8.8327 41.7155,8.79205 C41.8067,8.75139 41.9075,8.73644 42.0068,8.74886 C42.106,8.76128 42.1999,8.80058 42.2779,8.86241 L46.755,12.2718 C46.9104,12.3891 47.1006,12.4528 47.2963,12.4528 C47.4919,12.4528 47.6821,12.3891 47.8375,12.2718 L51.4309,9.06125 C51.5315,8.98532 51.6123,8.88677 51.6665,8.77379 C51.7208,8.66082 51.747,8.53668 51.7429,8.4117 C51.7388,8.28672 51.7046,8.1645 51.6431,8.05521 C51.5816,7.94593 51.4945,7.85273 51.3892,7.78335 L51.3892,7.78335 Z" id="Path"></path>
            <path d="M30.2234,6.33334 L27.0522,4.28676 C26.3686,3.84856 25.5725,3.61234 24.7576,3.60589 C23.9428,3.59945 23.143,3.82305 22.4524,4.25039 L18.4196,6.47398 L14.4064,3.96911 C13.9252,3.70387 13.3827,3.56624 12.8317,3.56964 C12.2807,3.57304 11.7399,3.71735 11.2621,3.98851 L7.87486,6.17087 L5.21414,3.90364 C4.98391,3.71456 4.69282,3.61308 4.39347,3.61753 C4.09411,3.62197 3.80624,3.73206 3.58187,3.92789 L0.479333,6.52005 C0.335964,6.63112 0.218866,6.77177 0.136215,6.93218 C0.0535637,7.09258 0.00735246,7.26888 0.00080792,7.44876 C-0.00573663,7.62863 0.0275433,7.80775 0.0983236,7.97361 C0.169104,8.13946 0.275679,8.28805 0.410606,8.40901 L4.06542,11.5322 L4.06542,30.446 C4.06542,31.4742 5.33932,32.0173 6.14196,31.3311 L10.2828,27.7981 C10.6963,27.4494 11.029,27.0169 11.2581,26.5298 C11.4873,26.0428 11.6075,25.5127 11.6107,24.9756 L11.6107,13.0502 L11.6671,9.30863 C11.6685,9.24077 11.6853,9.17409 11.7162,9.1135 C11.7471,9.0529 11.7915,8.99994 11.8459,8.95852 C11.9003,8.91709 11.9634,8.88826 12.0306,8.87416 C12.0978,8.86005 12.1674,8.86102 12.2341,8.877 C13.1472,9.09524 14.0505,9.80087 14.0505,10.6399 L14.0505,30.3102 C14.0515,30.5542 14.1231,30.7928 14.2568,30.9979 C14.3905,31.203 14.5807,31.3661 14.8051,31.468 C15.0295,31.5699 15.2786,31.6064 15.5232,31.5731 C15.7679,31.5398 15.9978,31.4382 16.1859,31.2802 L20.2237,27.8684 C20.6523,27.5038 20.9962,27.052 21.2317,26.5439 C21.4673,26.0358 21.5889,25.4835 21.5884,24.9247 L21.5884,9.12919 C21.5887,9.06072 21.6046,8.9932 21.6351,8.9317 C21.6656,8.87019 21.7097,8.81631 21.7643,8.77408 C21.8188,8.73185 21.8824,8.70237 21.9501,8.68786 C22.0178,8.67335 22.088,8.67418 22.1554,8.69029 C23.066,8.90853 23.9644,9.61416 23.9644,10.4507 L23.9644,30.4363 C23.9644,31.4645 25.2383,32.0076 26.0409,31.3214 L30.1793,27.7884 C30.5938,27.4389 30.927,27.0052 31.1562,26.5168 C31.3853,26.0284 31.5051,25.4969 31.5072,24.9586 L31.5072,8.65634 C31.5054,8.19426 31.3871,7.7399 31.1629,7.33432 C30.9388,6.92874 30.6159,6.58472 30.2234,6.33334 Z" id="Path"></path>
            <path d="M98.3346,3.61746 L82.3801,3.61746 C81.7042,3.61704 81.0494,3.85039 80.5294,4.27702 L78.2344,6.15628 L74.3611,3.16402 C73.9477,2.8435 73.4397,2.66508 72.9142,2.65589 C72.3888,2.6467 71.8747,2.80723 71.45,3.11309 L69.6067,4.44191 L63.485,8.85271 C62.9446,9.1808 62.4984,9.64052 62.1894,10.1878 C61.8804,10.7351 61.7188,11.3517 61.7202,11.9783 L61.7202,20.3125 C61.7217,20.6733 61.8136,21.028 61.9879,21.3451 C62.1621,21.6621 62.4131,21.9315 62.7186,22.1292 C63.024,22.3269 63.3743,22.4468 63.738,22.478 C64.1018,22.5092 64.4678,22.4509 64.8031,22.3082 L71.4918,19.4299 L71.4918,24.8713 C71.488,24.9711 71.4642,25.0691 71.4219,25.1598 C71.3795,25.2505 71.3194,25.332 71.245,25.3997 C71.1707,25.4673 71.0835,25.5197 70.9885,25.5539 C70.8935,25.588 70.7926,25.6033 70.6916,25.5987 L62.5916,25.5987 C62.3598,25.5987 62.1376,25.6897 61.9737,25.8516 C61.8098,26.0134 61.7178,26.233 61.7178,26.462 L61.7178,30.6497 C61.7175,30.7632 61.7398,30.8758 61.7836,30.9808 C61.8274,31.0858 61.8917,31.1812 61.9728,31.2616 C62.054,31.3421 62.1505,31.4059 62.2566,31.4494 C62.3628,31.4929 62.4766,31.5153 62.5916,31.5153 L72.3361,31.5153 C72.9799,31.5153 73.6008,31.2794 74.0788,30.8534 L78.3105,27.0827 C78.5677,26.8577 78.7739,26.5815 78.9156,26.2723 C79.0573,25.9631 79.1313,25.6278 79.1327,25.2883 L79.1327,16.3164 C79.1327,16.263 79.1327,16.2121 79.1205,16.1588 L79.1327,16.1588 L79.1205,16.1588 C78.9904,14.3644 76.7739,13.1786 75.0656,14.0564 L69.3612,16.4886 L69.3612,9.14127 C69.3612,9.06478 69.383,8.98984 69.4243,8.92512 C69.4655,8.8604 69.5245,8.80855 69.5944,8.77557 C69.6642,8.74259 69.7421,8.72982 69.819,8.73875 C69.8959,8.74768 69.9686,8.77795 70.0289,8.82604 L73.3302,11.4352 C73.583,11.6349 73.8982,11.7418 74.2219,11.7373 C74.5456,11.7329 74.8577,11.6175 75.1048,11.4109 L77.4808,9.4274 L85.8803,9.4274 L83.6712,11.394 C83.0756,11.9209 82.5991,12.566 82.273,13.2872 C81.9469,14.0084 81.7785,14.7894 81.7787,15.5792 L81.7787,29.8858 C81.7787,30.336 81.9598,30.7678 82.282,31.0861 C82.6042,31.4044 83.0412,31.5832 83.4969,31.5832 L87.4389,31.5832 C87.8721,31.583 88.2906,31.428 88.6171,31.1468 C89.7167,30.1987 92.2989,27.9581 93.266,27.01 C93.3782,26.9021 93.456,26.7642 93.4898,26.6133 C93.5237,26.4623 93.5121,26.3048 93.4566,26.1603 C93.401,26.0157 93.3039,25.8903 93.1771,25.7996 C93.0504,25.7089 92.8995,25.6568 92.7432,25.6496 L89.4516,25.6496 L89.4516,9.47105 C89.4516,9.4565 89.4516,9.44195 89.4516,9.4274 L93.6783,9.4274 C93.9811,9.41687 94.2679,9.29084 94.4785,9.0758 L99.0366,4.84929 C99.1178,4.72731 99.1634,4.5856 99.1685,4.43969 C99.1736,4.29379 99.138,4.14931 99.0655,4.0221 C98.993,3.89488 98.8864,3.78983 98.7575,3.71846 C98.6286,3.64709 98.4823,3.61215 98.3346,3.61746 L98.3346,3.61746 Z" id="Path"></path>
            <path d="M103.324,8.87735 L107.453,12.0296 C107.68,12.2012 107.961,12.2888 108.247,12.2772 C108.533,12.2657 108.806,12.1558 109.019,11.9666 L112.077,9.2047 C112.201,9.0957 112.298,8.96022 112.362,8.80855 C112.425,8.65688 112.452,8.49301 112.441,8.32939 C112.43,8.16576 112.382,8.00669 112.3,7.86424 C112.218,7.7218 112.104,7.59973 111.967,7.50731 L107.183,4.11252 C106.497,3.62458 105.662,3.38266 104.818,3.42675 C103.973,3.47084 103.169,3.7983 102.539,4.355 L96.864,9.43991 C96.2469,9.98114 95.7528,10.6454 95.4143,11.389 C95.0758,12.1325 94.9007,12.9384 94.9004,13.7537 L94.9004,27.7111 C94.9004,29.8499 96.7413,31.5909 99.0142,31.5909 L110.133,31.5909 C110.239,31.5912 110.343,31.5708 110.441,31.5309 C110.539,31.491 110.627,31.4324 110.702,31.3584 C110.776,31.2844 110.835,31.1966 110.875,31.0999 C110.914,31.0033 110.934,30.8999 110.933,30.7956 L110.933,26.4308 C110.933,26.2218 110.849,26.0214 110.7,25.8736 C110.55,25.7258 110.347,25.6428 110.136,25.6428 L102.411,25.6428 L102.411,19.5806 L105.904,22.0055 C106.049,22.1077 106.225,22.1585 106.404,22.1497 C106.582,22.1409 106.752,22.073 106.886,21.957 L110.776,18.6204 C110.861,18.5481 110.929,18.4583 110.974,18.3572 C111.02,18.2561 111.042,18.1463 111.039,18.0358 C111.037,17.9252 111.009,17.8166 110.959,17.7177 C110.909,17.6188 110.837,17.532 110.749,17.4637 L106.92,14.4618 C106.778,14.3513 106.601,14.2923 106.42,14.2945 C106.239,14.2967 106.064,14.36 105.924,14.4739 L102.411,17.3619 L102.411,9.28715 C102.417,9.185 102.45,9.08625 102.508,9.00169 C102.567,8.91714 102.647,8.85004 102.742,8.80774 C102.836,8.76543 102.94,8.74955 103.043,8.76183 C103.146,8.7741 103.243,8.81407 103.324,8.87735 Z" id="Path"></path>
        </g>
    </g>
</svg>