<svg height="19" width="158" viewBox="0 0 208 25" xmlns="http://www.w3.org/2000/svg" class="sc-chPdSV cuHqQe AdStudioLogo__LogoSvg-sc-1h7w7tj-0 eTnUgf"><title>Spotify Ad Studio</title><g fill="none" fill-rule="evenodd"><g id="Ad-Studio-logo-beta-3" fill-rule="nonzero" fill="#ffffff"><path d="M191.18 1.29c.248-.01.496.028.73.11.195.074.374.182.53.32.14.133.253.293.33.47.07.192.108.395.11.6.004.27-.077.537-.23.76-.14.205-.344.36-.58.44.135.03.264.084.38.16.117.08.222.178.31.29.194.248.297.555.29.87 0 .213-.04.423-.12.62-.078.188-.197.356-.35.49-.153.15-.338.262-.54.33-.228.08-.468.12-.71.12h-2.16V1.29h2.01zm-.18 2.3c.21.02.42-.05.58-.19.14-.127.218-.31.21-.5.007-.188-.065-.37-.2-.5-.17-.135-.383-.203-.6-.19h-.76v1.4l.77-.02zm.13 2.41c.223.018.445-.05.62-.19.15-.135.23-.33.22-.53.01-.2-.067-.397-.21-.54-.17-.152-.393-.228-.62-.21h-.9V6h.89zm2.76.91V1.29h3.49v1H195v1.3h2.17v1H195v1.25h2.4v1l-3.51.07zm7.2-4.55v4.51H200V2.32h-1.76v-1h4.62v1l-1.77.04zm5.27 3.27h-2.27l-.46 1.27h-1.15l2.14-5.58h1.26L208 6.86h-1.18l-.46-1.23zm-1.91-1H206l-.77-2.11-.78 2.11zM10.56 6.12c-.27-1.617-1.736-2.757-3.37-2.62-1.76 0-2.9 1.12-2.9 2.35.02 1.112.89 2.022 2 2.09l2.59.51c3.37.64 5.17 2.84 5.17 5.45 0 2.85-2.38 5.71-6.69 5.71-4.9 0-7.07-3.15-7.36-5.78l3.34-.89c.063 1.002.53 1.937 1.292 2.59.763.654 1.758.97 2.758.88 1.94 0 3-1 3-2.26 0-1.07-.81-1.91-2.25-2.2l-2.6-.53C2.61 10.81.7 8.91.7 6.12c0-3.3 3-5.81 6.46-5.81 4.49 0 6.22 2.69 6.64 4.81l-3.24 1zm4.29 18.07V6.37h3.37v1.57c.92-1.27 2.436-1.97 4-1.85 3.77 0 5.93 2.87 5.93 6.69 0 3.82-2.48 6.76-6.15 6.76-1.396.083-2.752-.485-3.67-1.54v6.21l-3.48-.02zm6.63-15c-1.77 0-3.21 1.33-3.21 3.6s1.44 3.63 3.21 3.63 3.19-1.33 3.19-3.63-1.41-3.59-3.19-3.59v-.01zm20.81 3.6c0 3.722-3.018 6.74-6.74 6.74-3.722 0-6.74-3.018-6.74-6.74 0-3.722 3.018-6.74 6.74-6.74 3.722 0 6.74 3.018 6.74 6.74zm-3.47 0c0-2.43-1.57-3.66-3.27-3.66s-3.27 1.23-3.27 3.66 1.56 3.66 3.27 3.66 3.27-1.22 3.27-3.65v-.01zm9.28-6.42h2.59v3.09H48.1v5.38c0 1.12.52 1.49 1.51 1.49.36 0 .718-.038 1.07-.11v2.89c-.64.237-1.32.342-2 .31-1.098.11-2.188-.272-2.976-1.045-.788-.773-1.193-1.855-1.104-2.955v-6h-2.28V6.37H43c.543.046 1.08-.15 1.465-.535.385-.386.58-.922.535-1.465V2.53h3.13l-.03 3.84zM53.67 0c1.178 0 2.134.952 2.14 2.13.005 1.178-.942 2.14-2.12 2.15-1.178.01-2.143-.932-2.16-2.11-.008-.573.214-1.125.616-1.533C52.548.23 53.096 0 53.67 0zm-1.73 19.23V6.37h3.48v12.86h-3.48zm15.27 5.07l3-6.7-4-8.25h-4.13v9.88h-3.49V9.35h-2.15v-3h2.15V4.91c-.104-1.276.35-2.535 1.247-3.45C60.733.545 61.982.063 63.26.14c.59-.024 1.18.06 1.74.25v2.93c-.358-.098-.73-.142-1.1-.13-.496-.06-.99.113-1.344.466-.353.353-.525.848-.466 1.344v1.37h6.58l3.42 7.53 3.16-7.53H79L70.89 24.3h-3.68zM93.66 15h-7.52l-1.55 4.24h-3.81L87.89.7h4.18l7.05 18.53H95.2L93.66 15zm-6.32-3.3h5.12l-2.56-7-2.56 7zm24.18 5.2c0 .87 0 1.81.1 2.33h-3.32c-.083-.492-.127-.99-.13-1.49-.798 1.2-2.172 1.885-3.61 1.8-3.65 0-6.27-2.87-6.27-6.76 0-3.89 2.54-6.72 6.17-6.72 2.22 0 3.27.91 3.63 1.59V.31h3.43V16.9zm-6.52-.47c1.78 0 3.16-1.35 3.16-3.68s-1.4-3.58-3.16-3.58c-1.76 0-3.19 1.31-3.19 3.61s1.36 3.65 3.19 3.65zm22.53-10.3c-.266-1.62-1.734-2.762-3.37-2.62-1.76 0-2.9 1.12-2.9 2.35.024 1.11.892 2.018 2 2.09l2.59.51c3.37.65 5.17 2.84 5.17 5.45 0 2.85-2.37 5.73-6.68 5.73-4.92 0-7.08-3.18-7.37-5.81l3.34-.89c.064.993.523 1.92 1.275 2.57.75.653 1.733.977 2.725.9 1.94 0 3-1 3-2.26 0-1.07-.81-1.91-2.25-2.2l-2.58-.52c-3-.62-4.87-2.52-4.87-5.31 0-3.3 3-5.81 6.46-5.81 4.49 0 6.22 2.72 6.63 4.81l-3.17 1.01zm9 .25h2.59v3.08h-2.59v5.38c0 1.12.52 1.49 1.51 1.49.36 0 .718-.038 1.07-.11v2.89c-.64.24-1.32.344-2 .31-1.096.107-2.184-.277-2.97-1.05-.785-.77-1.188-1.852-1.1-2.95v-6h-2.33V6.37h.66c.543.046 1.08-.15 1.465-.535.385-.386.58-.922.535-1.465V2.53h3.14l.02 3.85zm12.16 11.47c-.81 1.15-2.155 1.804-3.56 1.73-1.342.046-2.64-.48-3.57-1.447-.93-.967-1.407-2.284-1.31-3.623V6.37h3.47v7.42c-.09.67.122 1.345.577 1.844.455.5 1.108.773 1.783.746.672.035 1.325-.224 1.79-.71.465-.486.695-1.15.63-1.82V6.37h3.5V16.9c-.002.78.042 1.557.13 2.33h-3.32c-.065-.457-.095-.918-.09-1.38h-.03zm17.31-.94c0 .86 0 1.8.11 2.33h-3.32c-.088-.492-.132-.99-.13-1.49-.798 1.2-2.172 1.885-3.61 1.8-3.66 0-6.27-2.87-6.27-6.77 0-3.9 2.54-6.71 6.17-6.71 2.22 0 3.27.91 3.63 1.59V.31H166v16.6zm-6.53-.47c1.77 0 3.16-1.36 3.16-3.68 0-2.32-1.39-3.58-3.16-3.58-1.77 0-3.19 1.31-3.19 3.6s1.36 3.65 3.19 3.65v.01zM169.58 0c1.178 0 2.134.952 2.14 2.13.005 1.178-.942 2.14-2.12 2.15-1.178.01-2.143-.932-2.16-2.11-.008-.573.214-1.125.616-1.533.402-.407.95-.637 1.524-.637zm-1.73 19.23V6.37h3.48v12.86h-3.48zm18.22-6.43c0 2.408-1.285 4.633-3.37 5.837-2.085 1.204-4.655 1.204-6.74 0s-3.37-3.43-3.37-5.837c0-2.408 1.285-4.633 3.37-5.837 2.085-1.204 4.655-1.204 6.74 0s3.37 3.43 3.37 5.837zm-3.48 0c0-2.43-1.56-3.66-3.27-3.66s-3.27 1.23-3.27 3.66 1.57 3.66 3.27 3.66 3.27-1.23 3.27-3.66z"></path></g></g></svg>