<svg enable-background="new 0 0 1070.2 553" viewBox="0 0 1070.2 553" xmlns="http://www.w3.org/2000/svg"><g fill="#fff"><path d="m450 242.3c.5.7 1.1 1.3 1.7 1.9 0 0 0 0 .1.1.3.3.6.6 1 .9 2.8 2.2 6.4 3.4 10.6 3.4 1.4 0 3-.1 4.6-.4 6.9-1.1 15.3-6.5 16.1-25.7.4-11.2-3.7-83.5-4.8-101.1 5.5-.6 10.9-1.3 17.4-2.2.6-.1 1.3-.2 1.9-.2 5.6-.7 12.5-1.6 17.6-4.9 4.1-2.7 7-7.4 7.8-12.6.7-4.7-.4-9.1-3.1-12.5-1-1.3-2.2-2.3-3.4-3.1-2.7-2.9-5.5-5.8-8.2-8.7-2.3-2.5-4.6-4.9-7-7.4-1.1-1.2-2.2-2.4-3.4-3.5-1.4-1.4-2.8-2.9-4.1-4.3-.4-.4-.8-.9-1.2-1.3-2.1-2.2-4.2-4.6-6.8-6.5-3.2-2.4-6.6-3.5-10.8-3.5-2.6 0-5 .4-7.3.7-1.1.2-2.2.3-3.3.4-9.9 1.1-19.7 2.1-29.2 3.1-12.1 1.3-24.5 2.6-37.1 4l-.8.1c-6.8.8-15.3 1.7-22.2 4.4-7.1 2.6-12.6 8.6-14.1 15.2-2.1 9.1 5.1 17.5 9.5 21.6 2.7 2.5 5.3 5.1 7.8 7.5 3.1 3.1 6.3 6.3 9.8 9.3.7.6 1.4 1.4 2.1 2.2.3.4.7.7 1 1.1.2.2.4.4.6.7.3.3.6.6.8.9 1.8 2.6 4.3 4.5 7.3 5.6s6.4 1.4 9.8 1.1c1.3-.1 2.7-.3 4-.4.1 2.3.2 4.9.3 7.6.2 4.9.4 10 .6 13.6.2 3.7.4 7.4.6 11 .4 8.2.8 16.7 1.6 25.1.1 1.4.2 3 .3 4.6.5 8.1 1.1 17.2 6.6 22.8.8.8 10.7 12.3 25.3 29.4zm-51-175.6.8-.1c12.6-1.4 25-2.7 37.1-4 9.5-1 19.3-2 29.3-3.1 1.2-.1 2.4-.3 3.5-.5 2.2-.3 4.2-.6 6.2-.6h.1c2.5 0 4.1.5 5.9 1.9 2.1 1.6 3.9 3.5 5.8 5.6.4.5.9.9 1.3 1.4 1.4 1.5 2.8 3 4.2 4.4 1.1 1.2 2.2 2.3 3.3 3.5 2.3 2.4 4.6 4.9 6.9 7.3-2.3.1-4.4.3-6.3.5l-74.2 8c-.9.1-1.8.2-2.7.3-.5.1-1.1.1-1.6.2s-1.1.1-1.6.2c-4.7-4.9-11.2-11.8-23-24.4 1.7-.2 3.4-.4 5-.6zm-14.1 35.4c-2.5-2.5-5.2-5.1-8-7.7-2-1.9-8.5-8.4-7.2-14 .9-4 4.7-8 9.1-9.8 1.8-.7 3.8-1.3 5.9-1.8.2.3.3.6.6.8 10.6 11.4 17.3 18.6 22.2 23.7-.5.1-1.1.3-1.6.5-1.1.4-2.2.8-3.3 1.3-2.9 1.4-5.6 3.3-7.8 6-.2.3-.5.6-.7.9 0 .1-.1.1-.1.2-.2.2-.3.5-.5.7 0 .1-.1.1-.1.2-.2.3-.3.5-.5.8 0 0 0 .1-.1.1-.2.3-.3.5-.4.8v.1c-.1.3-.3.6-.4.9-.3.8-.6 1.7-.9 2.6-2-2.1-4-4.2-6.2-6.3zm24.9 18.5c-2.2.2-4.4 0-6.3-.7-1.4-.5-2.4-1.3-3.1-2.2 0-.1-.1-.2-.2-.2-1.5-2-2-5.2-.9-8.3 0-.1.1-.2.1-.2.1-.1.1-.3.2-.4 0-.1.1-.2.1-.3.1-.2.2-.4.3-.5 0-.1.1-.2.2-.3.1-.2.2-.3.3-.5 0-.1.1-.1.2-.2.1-.2.3-.4.5-.6 3.2-3.9 8.3-5.4 13.9-6.2.3.1.5.1.8.1.6 0 1.2-.1 1.7-.4 1.2-.1 2.4-.3 3.6-.4.9-.1 1.9-.2 2.8-.3l74.2-8.1c.4 0 .8-.1 1.2-.1h.4c.3 0 .5-.1.8-.1h.5c.2 0 .4 0 .6-.1h.6.5c1.2-.1 2.4-.1 3.6 0 .3 0 .6 0 .9.1 1.2.1 2.3.3 3.3.6h.2c.2.1.3.1.5.2.1 0 .2.1.4.1.1.1.3.1.4.2s.3.1.4.2.3.1.4.2c.8.5 1.5 1.1 2.1 1.8.4.5.7 1 .9 1.5 0 .1.1.3.2.4.6 1.6.5 3.3.3 4.3-.5 3-2.1 5.7-4.3 7.1-3.6 2.4-9.3 3.1-14.3 3.7-.7.1-1.3.2-2 .3-7.8 1-14 1.8-21 2.6-2.1.2-3.6 2.1-3.5 4.2.1.9 5.4 92 5 104.1-.4 11.1-3.6 17.3-9.4 18.2-4.1.7-7 .2-9-1.3-.2-.1-.3-.3-.5-.5-.3-.3-.5-.5-.7-.8 0 0 0-.1-.1-.1-.5-.7-.9-1.5-1.3-2.4-.1-.3-.2-.6-.3-.9-1.3-3.8-1.6-8.9-1.9-13.5-.1-1.7-.2-3.2-.4-4.8-.7-7.5-1.1-15.1-1.4-22.6 0-.7-.1-1.4-.1-2.1-.1-1.8-.2-3.7-.3-5.5-.1-1.9-.2-3.7-.3-5.6-.3-5.7-.6-11.3-.9-17-.1-2.6-.3-5.3-.4-8-.5-9.8-1.1-19.8-1.8-29.5l-.3-4.6c-.1-1.1-.6-2.1-1.4-2.8-.2-.1-.3-.3-.5-.4 0 0-.1 0-.1-.1-.2-.1-.4-.2-.5-.3h-.1c-.2-.1-.4-.1-.6-.2h-.1c-.2 0-.4-.1-.6-.1-.1 0-.3 0-.4 0l-6.1.6c-3.8.4-7.7.8-11.5 1.2-1.5.2-3 .3-4.5.5-.7.1-1.5.2-2.2.2h-.1c-3.1.2-5.9.5-8.7.8zm13.7 28.2c-.2-3.4-.4-8.5-.6-13.4-.1-2.9-.2-5.7-.3-8.1.9-.1 1.9-.2 3.1-.3 3.8-.4 7.7-.8 11.5-1.2l1.9-.2h.1v.5c.9 12.4 1.6 25.1 2.2 37.4.1 1.9.2 3.8.3 5.7.2 3.8.4 7.6.6 11.4.2 3.7.4 7.4.6 11 .4 8.2.8 16.7 1.6 25.1.1 1.4.2 3 .3 4.6.1 1 .1 2 .2 3.1-9.4-10.9-14.3-16.7-14.7-17.1-3.4-3.4-3.9-11-4.3-17.7-.1-1.7-.2-3.2-.4-4.8-.8-8.2-1.2-16.6-1.5-24.7-.2-3.8-.4-7.6-.6-11.3z"/><path d="m807 348.7c-.4-17-.9-34.4-1.5-53.1v-.2c-.5-6.7-3.8-12.3-8.6-15.4l-27.7-28.6c-.1-.1-.1-.1-.2-.2-3.7-3.4-8.9-5-14.5-4.6-6.2.5-12 3.5-15.6 8.1-2.5 3.2-3.9 7-4.1 11.2v.3c.2 7.8.7 15.8 1.1 23.4s.8 15.5 1.1 23.2c.1 4.2.4 8.5.6 12.7.5 8.3 1 16.9.5 25.3-.5 7.8-4.4 17.8-11.6 22.6-5.6 3.6-13.2 6.2-20.5 7.1-.1-.7-.2-1.5-.3-2.2-1.7-12.7-2-25.9-2.3-38.6-.3-10.8-.5-22-1.6-32.8l-.1-.6c-.4-4.5-1.1-10.7-5.6-14.4l-13-13c-1.6-1.6-3.1-3.1-4.7-4.7-2.9-3-5.9-6-9-9-3.7-3.5-7.4-7.1-14-7.5-6.7-.4-13.7 3-17.4 8.3-4 5.8-3.7 12.4-3.5 18.1 0 .7.1 1.4.1 2.1.3 9.1.6 18.5.9 27.9.6 17.4 1.4 33.1 3 52.6.8 10.3 2.6 22 9.6 31.3 8.5 11.3 19.8 22.7 29.7 32.9 1.9 2 3.8 3.9 5.6 5.8 3.8 4.3 8.4 7.7 13.7 10.2 9.1 4.4 19.8 6.5 32.1 6.5 5.1 0 10.5-.4 16.2-1.1 12.4-1.4 24-5.4 33.7-11.7 10.9-7.1 19-17 23.3-28.6 4.7-12.6 5.1-25.3 5.1-36.3 0-7-.2-14.2-.4-21.1 0-1.9 0-3.9-.1-5.9zm-51.8-94.2c3.3-.3 6.3.6 8.4 2.4l20.2 20.9h-.1c-.2.1-.5.1-.8.2-.2.1-.4.1-.7.2s-.7.2-1 .3c-.2.1-.3.1-.5.2-.3.1-.5.2-.8.3-.2.1-.4.1-.5.2-.2.1-.5.2-.7.3s-.4.2-.5.2c-.2.1-.5.2-.7.4-.2.1-.3.2-.5.3s-.5.3-.7.4-.3.2-.5.3c-.3.2-.5.3-.8.5-.1.1-.3.2-.4.3-.4.3-.8.6-1.2.9-.8.7-1.6 1.4-2.3 2.2-1.2 1.4-2.2 2.8-3 4.4l-24.8-25.8c.4-1.4 1.1-2.7 2-3.9 2.1-2.9 5.9-4.8 9.9-5.2zm-24.4 125.7c10.2-6.7 14.6-19.6 15.2-28.7.6-8.9.1-17.8-.5-26.4-.3-4.1-.5-8.3-.6-12.4-.2-7.8-.7-15.7-1.1-23.4-.3-4.7-.5-9.5-.7-14.4l23 23.9c.2 7.4.6 14.9 1 22.1.4 7.6.8 15.5 1.1 23.2 0 .8.1 1.6.1 2.4.1 3.4.4 6.9.6 10.2.3 4.2.5 8.4.6 12.6s.1 8.5-.2 12.7c-.5 7.3-3.9 16.6-10.3 21.6-.4.3-.9.7-1.3 1-2.4 1.6-5.3 3-8.5 4.2-.7.3-1.4.5-2.2.8-1.5.5-3 .9-4.5 1.2-3.5.8-7.1 1.2-10.7 1.2-3.2 0-6.3-.4-9.2-1.2-5.9-1.7-10-5-12.2-9.8-.2-.4-.4-.8-.6-1.3 0-.1-.1-.2-.1-.3-.1-.4-.3-.8-.4-1.2 0-.1 0-.1-.1-.2-.3-1-.6-2-.9-3.1 0 0 0 0 0-.1-.4-1.6-.7-3.2-1-4.7 0-.1 0-.2-.1-.3-.1-.4-.1-.8-.2-1.2 0-.1 0-.2 0-.3 8.6-.8 17.2-3.8 23.8-8.1zm-76.4-114.7h.6c3.4.2 5.4 1.9 8.9 5.3 3 2.9 6 5.9 8.9 8.8 1.6 1.6 3.1 3.2 4.7 4.8l5 5h-.1c-.3.1-.6.1-.9.2-.1 0-.1 0-.2 0-.3.1-.6.1-.9.2-.1 0-.1 0-.2 0-.3.1-.6.1-.8.2h-.1c-.3.1-.6.1-.8.2-.5.1-.9.3-1.4.4-.2.1-.5.2-.7.3-.1 0-.2.1-.3.1-1 .4-1.8.9-2.7 1.6 0 0-.1.1-.1.1-.2.2-.4.3-.6.5-.6.5-1.2 1.1-1.7 1.6-2.3 2.5-3.7 5.1-4.5 7.7l-24-26.7c.3-2.1.8-4 2-5.7 2-2.6 6.1-4.6 9.9-4.6zm0 127.7c-5.8-7.7-7.3-18-8-27.2-1.6-19.4-2.3-34.9-2.9-52.3-.3-8.7-.6-17.3-.8-25.8l22.5 25c.2.2.4.4.6.5 0 .5 0 .9.1 1.4 0 .8.1 1.7.1 2.5.3 8.6.5 17.5.8 26.4 0 .5 0 1 .1 1.5v.9c-.2.6-.3 1.3-.2 2 .1 1.1.3 2.2.4 3.4.7 18.3 1.5 33.1 2.6 46.8 0 .4.1.8.1 1.2 0 .5.1 1 .1 1.5.1 1 .2 2 .3 2.9v.3c.4 3 .9 6 1.5 8.7-6.2-6.3-12.3-13.1-17.3-19.7zm140.7 16c-7.2 19.4-26.1 32.5-50.4 35.2h-.1c-18.1 2.3-32.5.8-44-4.7-4.2-2-7.6-4.6-10.4-7.5-.1-.1-.1-.1-.1-.2-6.1-6.4-10.1-15.6-11.7-26.6-.1-.8-.2-1.6-.3-2.4s-.2-1.6-.2-2.4c0-.5-.1-1-.1-1.5 0-.4-.1-.8-.1-1.2-1-13.5-1.9-28.4-2.6-46.5 0-.1 0-.2 0-.3-.1-1.4-.1-2.7-.2-4.1l-.1-1.8c-.3-9.3-.6-18.7-.9-27.9 0-.9-.1-1.8-.1-2.6 0-.1 0-.1 0-.2-.3-7.1-.2-11.1 4.2-14.9 0 0 .1 0 .1-.1.7-.6 1.5-1 2.5-1.3h.1c.2 0 .4-.1.6-.1.1 0 .1 0 .2-.1.2 0 .3-.1.5-.1.1 0 .2 0 .3-.1.2 0 .3-.1.5-.1.1 0 .2 0 .3-.1.3-.1.5-.1.8-.2h.1c.2 0 .5-.1.7-.1h.3c.2 0 .4-.1.6-.1h.3c.2 0 .4 0 .6-.1h.3.8.6.1.5.2c.2 0 .4.1.6.1s.4.1.5.2c0 0 .1 0 .1.1.1 0 .3.1.4.2 0 0 .1 0 .1.1.2.1.3.2.4.3 2.1 1.6 2.5 5.6 2.8 9.2l.1.6c1.1 10.6 1.3 21.6 1.6 32.2.3 13 .6 26.4 2.4 39.5.1 1.1.3 2.2.4 3.3.1.9.2 1.8.4 2.8.5 3.9 1.1 8.2 2.3 12.4v.1c.1.4.2.8.3 1.2 0 .1 0 .2.1.2.1.3.2.7.3 1 0 .1.1.2.1.3.1.3.2.6.3.9 0 .1.1.2.1.4.1.3.2.6.4.9 0 .1.1.2.1.3.2.4.4.8.5 1.2 3.2 6.9 9.2 11.8 17.2 14.1.5.1.9.3 1.4.4.2 0 .3.1.5.1.3.1.6.1.9.2.2 0 .4.1.6.1.3 0 .5.1.8.1.2 0 .5.1.7.1.3 0 .5.1.8.1.2 0 .5.1.7.1s.5.1.7.1.5 0 .7.1c.2 0 .5 0 .7.1h.7.7.7.7.1.3 1.6.4c.6 0 1.2-.1 1.9-.1h.3c.5 0 1.1-.1 1.6-.2.1 0 .3 0 .4-.1.6-.1 1.2-.2 1.9-.3h.3c.5-.1 1.1-.2 1.6-.3.1 0 .3-.1.4-.1.6-.1 1.2-.3 1.8-.4.1 0 .2 0 .2-.1.5-.1 1.1-.3 1.6-.4.1 0 .3-.1.4-.1.6-.2 1.2-.3 1.7-.5.1 0 .1 0 .2-.1.5-.2 1-.3 1.6-.5.1 0 .3-.1.4-.1.6-.2 1.1-.4 1.7-.6 0 0 .1 0 .1-.1.5-.2 1-.4 1.5-.6.1-.1.3-.1.4-.2.5-.2 1-.4 1.5-.7h.1c.5-.2.9-.4 1.4-.7.1-.1.2-.1.4-.2.5-.2.9-.5 1.4-.7h.1c.4-.2.9-.5 1.3-.7.1-.1.2-.1.3-.2.4-.3.9-.5 1.3-.8 1.9-1.3 3.6-2.7 5.2-4.4.3-.3.5-.5.7-.8 6.1-7 8.8-16.4 9.3-23.5.5-6.7.3-13.3-.1-19.9 0-.1 0-.2 0-.2-.1-2.1-.2-4.2-.4-6.2-.1-.9-.1-1.7-.2-2.6-.1-2.5-.3-5-.4-7.5 0-.8-.1-1.6-.1-2.4-.2-7.8-.7-15.8-1.1-23.4-.3-5.8-.6-11.8-.9-17.7-.1-1.8-.1-3.6-.2-5.3.2-3.5 1.7-6.4 4.4-8.5.2-.2.4-.3.7-.5 3.4-2.4 7.9-3.3 10.5-2.9.6.1 1.2.3 1.8.5h.1c3.6 1.6 5.7 5.9 6.1 9.9.6 18.7 1.1 36 1.5 53 0 2 .1 4 .2 6 .2 6.9.4 14 .4 20.9.1 10.6-.2 22-4.4 33.3z"/><path d="m970.6 326.1c-.4-1.1-.8-2.1-1.3-3.2-2.1-4.4-4.8-8.5-7.9-12-.1-.1-.1-.1-.2-.2-3.3-3.5-7-6.5-11.1-8.7-.5-.3-1.1-.6-1.6-.8-.1-.1-.3-.1-.4-.2-.4-.2-.9-.4-1.3-.6-.1-.1-.3-.1-.4-.2-.5-.2-1-.4-1.5-.6-.1 0-.1-.1-.2-.1-1.1-.4-2.3-.7-3.4-1-.3-.1-.6-.1-.9-.2s-.5-.1-.8-.2c-.4-.1-.8-.2-1.3-.3-.1 0-.2 0-.2 0-5.6-1-10.9-1-15.4-.8-9.4.4-19 1.4-28.4 2.8-2 .3-3.5 2.1-3.4 4.1l3.9 92.9v.3c0 .6.2 1.2.5 1.7 0 .1.1.2.1.2.1.1.1.2.2.2.3.4.7.7 1.1 1 0 0 .1 0 .1.1.1.1.3.1.4.2.1 0 .2.1.3.1s.3.1.4.1h.2c.2 0 .4.1.6.1h.4l3.2-.3h.3c1.5-.1 3-.3 4.5-.4 2.9-.3 5.9-.6 8.9-.9h.1c1.4-.2 2.9-.3 4.3-.5h.2c4.3-.5 8.8-1.1 13.4-2 6.4-1.3 12.8-3.3 18.6-7.1 9.7-6.3 14.9-17 17.2-22.9.8-2 1.4-4.1 2-6.1 2.1-7.9 2.7-16.2 1.6-23.8-.6-3.8-1.5-7.3-2.8-10.7zm-51 64.7c-.4 0-.8.1-1.2.1-3.5.4-7 .8-10.4 1.1-1.8.2-3.6.4-5.4.5v-.9c0-.6-.1-1.2-.1-1.9l-1-24.1c6.2-1.2 13.4-3.2 19.9-7.4 9.7-6.3 14.9-17 17.2-22.9 3.5-9.1 4.8-19 3.9-28.1h.1c.6.2 1.2.5 1.8.7.1 0 .2.1.3.1l1.8.9c6.7 3.6 12.3 9.7 15.8 17.2.6 1.3 1.1 2.6 1.6 4 .8 2.4 1.4 5 1.8 7.6 1 7.3.3 15.3-2.1 22.8-.3 1.1-.7 2.1-1.1 3.2-3.2 8.5-8.4 15.4-14 19.1-6.5 4.2-14.4 5.9-22 7-2.5.5-4.7.8-6.9 1zm3.4-85.7c4.1-.2 7.8-.1 11 .3.1.4.1.8.2 1.2 1.2 8.4 0 17.6-3.2 26-3.2 8.5-8.4 15.4-14 19.1-5 3.3-10.8 5-15.9 6-.8-20.1-1.8-42-2.1-50.5 7.9-1 16-1.7 24-2.1z"/><path d="m997.8 300.3c-4.9-9.3-11.2-16.8-18.7-22.5-3.1-3.4-25.4-28.2-36.3-35.9-12.9-9.1-27.5-8-41.7-6.9-1.6.1-3.1.2-4.7.3-8.6.6-17.4 1.4-26 2.5l-.8.1c-6 .8-11.6 1.5-17.4 2-5 .5-11.9 1.1-17.1 5.5-8.1 6.8-7.4 17.5-6.9 26.1.1 1.5.2 3 .2 4.3v.5c.1 3.8.2 7.5.2 11.3.3 14.5.6 29.4 1.1 44.1.3 10.1.7 19.1 1.2 27.7.3 4.9.5 8.5.8 13 .1.8.1 1.5.2 2.2.4 6.1.8 8.8 5.8 16.8.1.2.3.4.4.6l30.2 33.5c.6.8 1.3 1.6 2.1 2.3 4.6 4.3 10.4 5.1 15.4 5.1h1.6c13.3-.4 26.5-2.7 37.8-4.9l3.2-.6c16.4-3.1 33.4-6.4 48.2-15.8h.1c8.4-5.6 15.1-12.8 20.1-21.4 5.9-10.2 9.5-22.4 10.8-36.2 1.7-19.3-1.7-38.3-9.8-53.7zm-144.8-52.4c6-.5 11.9-1.3 17.7-2.1l.8-.1c8.5-1.1 17.1-1.9 25.5-2.5 1.6-.1 3.2-.2 4.8-.3 13.4-1 26-1.9 36.5 5.5 5.2 3.7 13.7 12 21 19.7-.8-.2-1.6-.4-2.3-.6-7.4-1.7-15.1-1.7-22.6-1.3-2.1.1-4.3.2-6.4.4h-.2c-8.6.6-17.4 1.4-26 2.5l-.7.1c-6 .8-11.6 1.5-17.5 2-1.1.1-2.3.2-3.5.4-.2 0-.5.1-.7.1-4.2.6-9 1.8-12.9 5-.4.3-.8.7-1.1 1-8.8-8.7-15.1-15.1-25.4-25.8.1-.1.2-.2.4-.3 3.2-2.8 8.4-3.3 12.6-3.7zm-8.7 139c-3.9-6.3-4-7.9-4.4-12.8 0-.7-.1-1.5-.2-2.3-.3-4.4-.5-7.9-.8-12.8-.4-8.5-.8-17.5-1.1-27.5-.5-14.7-.8-29.6-1.1-44-.1-3.8-.2-7.5-.2-11.3v-.5c0-1.5-.1-3-.2-4.6-.2-3.8-.5-7.9.1-11.5 9.3 9.8 15.7 16.1 24.5 24.9 0 0 .1 0 .1.1-2.2 5.8-1.8 12.5-1.4 18.2 0 .6.1 1.1.1 1.7 0 .9.1 1.8.1 2.6v.5c.1 3.7.2 7.5.2 11.2.3 14.5.6 29.4 1.1 44.2.2 5 .3 9.8.5 14.4s.4 9 .6 13.3l.1 2.7c.1 2.6.3 5.2.4 7.9v.5.3c.1.8.1 1.7.2 2.5l.1 1.5c0 .6.1 1.3.2 2zm155.3-33.8c-1.2 12.8-4.4 23.6-9.8 33-4.4 7.7-10.2 13.8-17.6 18.7-13.4 8.5-29.7 11.6-45.3 14.6l-3.2.6c-11.5 2.2-23.9 4.4-36.5 4.8-5.6.2-9-.7-11.3-2.9-.4-.3-.7-.7-1-1.1-1.9-4.2-3.5-11.8-3.9-17 0-.3 0-.6-.1-1-.2-2.4-.3-4.8-.4-7.2 0-.1 0-.2 0-.4 0-.8-.1-1.6-.1-2.4l-.1-2.7c-.1-2-.2-4.1-.3-6.2-.3-6.7-.6-13.7-.8-21.3-.5-14.7-.8-29.6-1.1-44.1-.1-3.7-.2-7.5-.2-11.2v-.5c0-1.5-.1-3-.2-4.6-.1-2.3-.3-4.6-.2-6.9.1-5 .9-9.8 4.4-12.7 2.7-2.2 6.6-3 10.2-3.4.8-.1 1.7-.2 2.4-.2.4 0 .8-.1 1.2-.1 5.6-.5 11.2-1.2 16.6-1.9l.7-.1c8.5-1.1 17.1-1.9 25.5-2.5h.2c2.1-.1 4.3-.3 6.5-.4h.1c1-.1 2-.1 3.1-.1h.3 3 .4.9.8.9.8.9.8c.3 0 .6 0 .9.1.3 0 .5 0 .8.1.3 0 .6.1.9.1.2 0 .5.1.7.1.3 0 .6.1 1 .1.2 0 .5.1.7.1.4.1.7.1 1.1.2.2 0 .4.1.6.1.5.1 1 .2 1.6.3h.1c15.3 3.6 27.6 13.5 35.6 28.7 6.9 14.2 10.1 31.7 8.4 49.3z"/><path d="m596.3 323c-4.7-6.6-12-16-17.7-22.8-7.9-9.4-14.7-17-24.7-22.8-14.7-8.5-34.2-11.8-53.5-9.1-21 2.9-40.2 12.7-54 27.7-9.3 10.1-16.1 23.2-19.8 38-3.6 14.6-3.7 29.5-.4 43 6.2 25.1 22.8 42.3 39 58.9 3 3.1 6 6.2 9 9.4.5.5 1.1 1.1 1.7 1.6 1.2 1.2 2.5 2.5 3.8 3.6 13.4 11.7 30.7 17.9 49.5 17.9 3.4 0 7-.2 10.5-.6 25.7-3.1 49.6-16.9 63.8-36.9 11.4-16.2 16.6-37.8 14.4-60.8-1.8-18-9.8-34.6-21.6-47.1zm-94.8-46.8c4-.6 8-.8 12-.8 13.4 0 26.2 3.1 36.4 9 8.9 5.1 15 11.9 22.6 21 .1.1.2.3.4.4-9-4.3-18.6-6.7-28.3-6.9-.1 0-.2 0-.3 0-.4 0-.8 0-1.2 0-.2 0-.3 0-.5 0-.3 0-.6 0-.8 0-17.6.2-35.7 6.6-50 17.3-.1.1-.3.2-.4.3-.5.4-.9.7-1.4 1.1-1.3 1.1-2.6 2.1-3.9 3.3-.6.6-1.2 1.1-1.8 1.7-.5.5-1.1 1.1-1.6 1.6s-1 1-1.5 1.6c-.3.3-.6.7-.9 1l-25.2-28c12.1-12.2 28.5-20.1 46.4-22.6zm-67.6 99c-5.8-23.7.5-52 15.5-70.6l25.5 28.3c-12.7 17.2-19.9 39.9-19.4 62.3.2 8 1.4 15.6 3.5 22.7-11.3-12.4-20.8-25.5-25.1-42.7zm163 51.3c-12.9 18.3-34.6 30.8-58.2 33.6-20.6 2.4-39.7-3-53.8-15.4-1.1-1-2.2-2-3.3-3.1 0 0 0 0 0-.1-1.1-1.1-2.2-2.3-3.2-3.6-.3-.4-.6-.8-.9-1.2 0-.1-.1-.1-.1-.2-.3-.4-.6-.7-.8-1.1-.1-.1-.1-.2-.2-.2-.3-.4-.5-.7-.8-1.1-.1-.1-.1-.2-.2-.3-.3-.4-.5-.7-.7-1.1-.1-.1-.1-.2-.2-.2-.3-.4-.5-.8-.7-1.2 0-.1-.1-.1-.1-.2-.3-.4-.5-.8-.8-1.3v-.1c-6.3-10.8-9.5-23.9-9.3-38.2 0-.1 0-.2 0-.2 0-.6 0-1.2.1-1.9 0-.2 0-.5 0-.7 0-.5 0-.9.1-1.4 0-.5.1-.9.1-1.4 0-.2 0-.4.1-.7 1.8-20.9 10.8-41.8 24.2-55.7 0 0 .1-.1.1-.2.5-.5 1-1 1.5-1.5s1.1-1 1.7-1.6c.8-.8 1.7-1.5 2.6-2.2.7-.6 1.4-1.2 2.2-1.7.1-.1.3-.2.4-.3 13-9.7 29.3-15.5 45.3-15.7h2 .9c.5 0 .9 0 1.4.1.3 0 .6 0 1 .1.4 0 .8.1 1.2.1s.9.1 1.3.1.8.1 1.2.2c.3 0 .6.1.9.1.5.1 1.1.2 1.6.3.2 0 .4.1.6.1.6.1 1.2.2 1.8.4.1 0 .3.1.4.1 7.6 1.7 15 4.9 21.9 9.5.1.1.2.1.4.2 4.2 2.8 8.1 6.1 11.6 9.8.2.2.4.4.6.6 10.6 11.3 17.8 26.2 19.4 42.6 1.6 21.5-3 41.2-13.3 55.9z"/><path d="m583.5 368.7c-.4-2.6-1.1-5.1-2-7.5-.2-.6-.4-1.2-.7-1.8-5.6-13.6-17.7-23.6-32.9-26.6-1.3-.3-2.7-.5-4-.6-16.7-1.8-31.6 3.7-41.9 15.7-12.2 14.2-16.6 35.6-11.3 55.8.8 3.1 2 6 3.4 8.7v.1c0 .1.1.2.1.3s.1.1.1.2c6.4 11.6 17.9 19.7 31.3 22.1h.2c.5.1.9.1 1.4.2.1 0 .2 0 .4.1.5.1 1.1.1 1.6.2.4 0 .8.1 1.2.1 1.2.1 2.3.1 3.5.1 4.9 0 9.6-.8 14.1-2.3.4-.1.8-.3 1.1-.4 1.1-.4 2.2-.9 3.3-1.4.6-.3 1.3-.6 1.9-.9 18-9.3 29.9-31 29.8-53.4 0-1.5-.1-3.1-.2-4.7 0-1.4-.2-2.7-.4-4zm-34.3 55.7c-5.8 2.7-12.1 3.7-18.6 3.2-.2 0-.3 0-.5 0-.6-.1-1.1-.1-1.7-.2-.2 0-.4-.1-.6-.1-.3-.1-.7-.1-1-.2s-.6-.1-.8-.2c-.1 0-.2-.1-.4-.1-8.5-1.9-16-6.6-21.1-13.1 11.4-2.9 24.1-12.8 29.8-20.3 7.1-9.6 11.6-19.5 13.6-30.4 1.6-8.5.9-14.8-.5-22.2.1 0 .2 0 .3.1.2.1.4.1.7.2s.6.1.9.2c.2.1.4.1.7.2s.6.2.9.3c.2.1.4.1.6.2.3.1.6.2.9.3.2.1.4.1.6.2.3.1.6.2.9.3.2.1.4.2.6.2.3.1.6.3.9.4.2.1.3.1.5.2.4.2.7.4 1.1.5.1 0 .2.1.3.1.5.2.9.5 1.3.7.1 0 .2.1.3.2.3.2.7.4 1 .6.1.1.3.2.4.3.3.2.5.4.8.5.2.1.3.2.5.3.2.2.5.4.7.5s.3.3.5.4c.2.2.5.4.7.5s.3.3.5.4c.2.2.4.4.6.6.2.1.3.3.5.4.2.2.4.4.6.6.2.1.3.3.4.4.2.2.4.4.6.6.1.2.3.3.4.5.2.2.4.4.6.7.1.2.3.3.4.5.2.2.4.5.6.7.1.1.2.3.3.4.2.3.4.6.6.9.1.1.2.2.2.3.3.4.6.8.8 1.2 0 .1.1.1.1.2.2.4.4.7.7 1.1.1.1.2.3.2.5.2.3.3.6.5.9.1.2.2.4.3.5.1.3.3.5.4.8.1.2.2.4.3.6.1.3.2.5.3.8.1.2.2.4.2.6.1.3.2.5.3.8.1.2.2.4.2.6.1.3.2.5.3.8.1.2.1.4.2.6.1.3.2.6.2.8.1.2.1.4.2.6.1.3.1.6.2.9 0 .2.1.4.1.6.1.3.1.6.2.9 0 .2.1.4.1.6.1.3.1.7.2 1 0 .2.1.3.1.5.1.5.1 1.1.2 1.6.1.7.1 1.3.1 2 .4 8.6-1.4 17.2-4.7 24.9-4.7 11.4-12.6 20.4-22.3 24.8zm-41.2-71.3c5.4-6.3 14.8-13.3 29.5-13.3h1.5l.2.6c1.5 7.9 2.3 13.2.8 21.2-1.8 9.7-5.8 18.5-12.1 27.1-5.7 7.7-18.9 16.6-27.7 17.8-.7-1.6-1.3-3.2-1.7-4.9-4.7-17.7-1.1-36.3 9.5-48.5z"/><path d="m824.9 59.5c-.2-.2-.4-.4-.6-.5-7.8-9.2-19.6-21.5-29.5-28.8-6.5-4.7-15.1-5.5-21.9-2.1-4.5 2.3-7.8 6.1-10.6 9.5-.6.7-1.2 1.4-1.8 2.1-7.7 8.7-14.8 18-21.7 27-1.3 1.6-2.5 3.3-3.8 4.9-2.9-3-6.2-5.7-9.9-7.2-3-3.9-6.3-7.5-9.4-11-1.8-2-3.7-4.1-5.5-6.2-4.2-4.9-8.6-10-15.1-13.4-6.7-3.5-15.2-3.1-22.8 1.1-6.9 3.8-11.9 10.9-13 18.4-1.2 8.6 4 16.3 8.2 22.4l.8 1.1c.6.9 1.2 1.8 1.8 2.6 4.7 7.1 9.7 14.2 14.5 21l2.9 4.1c3.6 5.1 7.4 10.5 11 15.7.6.9 1.3 1.8 2 2.8 2.1 3 4.3 6 5.5 9.1l.1.3v.1c.3 3 .3 4.4.3 5.4v.4 6 2.4c-.1 4.6 0 7.5.2 10.5.1 2.5.2 5.1.2 8.8 0 8.6 4.5 14.6 8 18.4 0 0 .1.1.1.1 1.3 1.4 4 4.3 7 7.6 7.2 7.9 16.1 17.6 19.5 20.5.9.7 2.2 1.7 3 2.2 1.3.8 2.8 1.8 4.4 2.7.3.2.6.3 1 .4 2.1 1.1 4.6 1.7 7.3 1.7 1.4 0 2.7-.1 4.1-.4 4.6-1 8.3-3.4 10.2-6.7 1.2-2 1.6-4.2 1.9-5.9 1.4-8.8 1.9-30.1 2.1-41.5.1-3.3.1-5.8.2-6.8 0-.3 0-.6 0-1.1.3-6.1.6-8.3.9-9.1 7.5-10.5 14.9-20.3 23.1-30.8 2.2-2.9 4.6-5.8 6.9-8.6 6.3-7.8 12.8-15.9 18-24.4.3-.5.7-1.1 1-1.6 1.6-2.6 3.5-5.5 4.3-9 1-5.1-.7-10.1-4.9-14.2zm-58.5-14.5c.7-.7 1.3-1.5 2-2.3 2.6-3.1 5.1-6 8.2-7.5 4.2-2.1 9.5-1.5 13.6 1.4 6.2 4.5 13.3 11.3 19.5 17.9-3.1.5-6 2-8.3 4.4-.2.2-.3.3-.5.5-.1.1-.1.1-.2.2 0 0-.1.1-.1.1-6.3 7.1-28.3 36.3-37.4 48.5-3-3.9-5.8-7.8-8.5-11.6-3.7-5.3-7.6-10.8-12-16.1-.3-.3-.5-.6-.8-.9-.2-.3-.5-.6-.7-.9-.3-.3-.5-.7-.8-1 1.6-2.1 3.2-4.1 4.8-6.2 6.7-8.8 13.7-18 21.2-26.5zm-38.9 141.8c-3.1-3.4-5.7-6.3-7.1-7.8-2.7-3.1-5.9-7.3-5.9-13.1 0-3.9-.1-6.6-.2-9.1-.1-2.9-.2-5.7-.1-10.1 0-.9 0-1.6 0-2.3 0-2 .1-3.6 0-6.2v-.4c0-1.1 0-2.8-.3-6.3-.1-.9-.4-1.6-.6-2.1l-.1-.2c-1.5-4-4.1-7.6-6.4-10.9-.6-.9-1.3-1.8-1.9-2.6-3.6-5.3-7.4-10.7-11.1-15.8l-2.9-4.1c-4.8-6.8-9.7-13.8-14.4-20.8-.6-.9-1.2-1.8-1.9-2.7l-.8-1.1c-3.4-5-7.7-11.2-6.9-16.7.7-5.1 4.2-9.9 8.9-12.6 5.2-2.9 10.9-3.3 15.3-1 4.7 2.5 8.1 6.2 12.7 11.5 1.9 2.2 3.8 4.3 5.7 6.4 1.5 1.7 3 3.3 4.4 4.9-.1 0-.2 0-.3.1-.2 0-.3.1-.5.1-.3.1-.6.2-1 .3h-.1s0 0-.1 0h-.1c-.5.2-.9.4-1.4.6 0 0-.1 0-.1.1-.5.2-.9.4-1.3.7 0 0-.1 0-.1.1-.4.3-.9.5-1.3.8s-.9.7-1.3 1c-.7.6-1.3 1.2-1.8 1.8 0 0-.1.1-.1.1-.2.2-.3.4-.5.6-.1.1-.2.3-.3.4s-.1.2-.2.3c-6 8.4-1.1 18.2 2.3 23.7.5.8 1 1.6 1.4 2.2.3.5.7 1 1 1.5 0 0 .1.1.1.1.3.5.6 1 1 1.4.1.1.1.2.2.3.3.4.6.9.9 1.3.1.1.1.2.2.3.3.5.6.9.9 1.4.1.1.1.2.2.3.3.5.7 1 1 1.5.1.1.1.2.2.2.4.5.7 1.1 1.1 1.6 0 0 .1.1.1.1 10.2 14.6 23.4 32.5 27.9 38.6.7.9 1 2.1 1 3.2v.2c0 1.4-.1 2.8-.1 4.2v.6c0 1.4-.1 2.8-.2 4.3v.6c-.1 1.5-.1 2.9-.2 4.4v.6c-.1 1.5-.1 3.1-.2 4.6-.5 10.7-1 21.8-.8 31.7v.9.1.4.1.5c-4-3.9-9.6-10.2-13.9-14.8zm94.4-115c-.5 2.2-1.9 4.3-3.3 6.6-.4.6-.7 1.2-1.1 1.7-4.9 8.1-11.3 15.9-17.4 23.5-2.3 2.9-4.7 5.9-7 8.8-8.3 10.7-15.8 20.7-23.4 31.3-1.3 1.8-1.9 5.1-2.2 13.2v1c-.1 1.1-.1 3.6-.2 7.1-.2 11.2-.7 32.1-2 40.4-.2 1.1-.4 2.4-1 3.3-.7 1.2-2.6 2.3-4.9 2.8-2.6.5-5.3.2-6.6-.8-2-1.5-2.7-4.2-3-7.2-.1-1.2-.2-2.4-.2-3.5-.1-6.3.1-13.1.4-20 .1-3.8.3-7.6.5-11.3.1-1.3.1-2.6.2-3.9 0-.4 0-.9.1-1.3 0-.4 0-.8.1-1.3 0-.5 0-1 .1-1.5 0-.4 0-.8 0-1.2 0-.6 0-1.1.1-1.6 0-.4 0-.7 0-1.1 0-.7 0-1.3.1-2 0-.2 0-.5 0-.7 0-.9.1-1.8.1-2.7v-.1c0-.7 0-1.5.1-2.2 0-1.1 0-2.2.1-3.2 0-.9-.3-1.7-.8-2.4-.2-.3-15.9-21.2-28-38.6-.1-.1-.2-.3-.3-.4-.3-.5-.6-.9-1-1.4-.1-.2-.3-.4-.4-.6-.2-.3-.4-.6-.6-.9s-.4-.6-.7-1c-.1-.2-.3-.4-.4-.6-.3-.4-.6-.8-.8-1.2-.1-.1-.2-.3-.3-.4-.2-.4-.5-.7-.7-1.1-.1-.1-.1-.2-.2-.3-.3-.4-.6-.8-.8-1.2-.1-.1-.2-.3-.3-.4-.3-.4-.5-.8-.8-1.2-.1-.1-.1-.2-.2-.3-.2-.4-.5-.7-.7-1.1 0 0-.1-.1-.1-.1-.4-.6-.7-1.2-1.1-1.7-3.6-5.9-4.8-10-3.8-13.3.5-1.4 1.3-2.7 2.7-3.8.1-.1.1-.1.2-.2.2-.1.4-.3.5-.4.1 0 .1-.1.2-.1.2-.1.4-.3.6-.4.1 0 .1-.1.2-.1.2-.1.4-.2.7-.3.1 0 .2-.1.2-.1.2-.1.4-.2.6-.2.3-.1.5-.2.8-.2h.1c.3-.1.6-.1.9-.2h.1c.2 0 .5-.1.7-.1h.2.6.2.8.3c.2 0 .4.1.6.1.4.1.8.2 1.1.3 4.5 1.5 8.7 6.1 13.5 12.1.2.2.3.4.4.6.4.4.7.9 1 1.3 4.2 5.1 8 10.5 11.7 15.6 3.7 5.3 7.6 10.8 12 16.1.1.1.1.1.2.2 0 0 .1.1.1.2.1.1.1.1.2.2 0 0 .1.1.1.1.1.1.1.1.2.1s.1.1.2.1.1.1.2.1.1.1.2.1.1.1.2.1.1.1.2.1.1 0 .2.1c.1 0 .1 0 .2.1h.2.2.2.2.1c1 0 1.9-.4 2.6-1.1.2-.2.3-.3.5-.5l.1-.2c15.2-20.3 34-45.1 39.6-51.5.4-.4.7-.8.9-1 3.5-3.6 9.1-2.4 12.4.8 2 1.7 2.8 3.9 2.3 6.1z"/><path d="m511.8 193.6c.2 8.1 3.5 13.2 9.4 19.8 8.5 9.5 15.6 16.6 21 20.9.2.2.5.4.8.5 1.7 1.6 3.7 2.9 6.2 3.7 2.4.8 5 1.3 7.6 1.3 5 0 10-1.6 13.9-4.5 9.3-7 13.5-19.2 16.7-29.7l61.1-5c1.6 4 3.5 8.1 6 11.8 5.6 8.3 13.6 12.7 21.9 12.1 4.6-.3 8.9-2.2 12.1-5.4 2.2-2.1 8.7-8.6 3.9-25.4-2.1-7.3-4.9-14.7-8.7-22.6l-29.1-61.4c-.8-1.7-1.6-3.4-2.4-5.2-4-8.8-8.1-17.9-15.3-24.3-.3-.2-.5-.4-.8-.7-3-3.8-7-8.3-9.2-10.7l-.5-.6c-1.7-1.9-3.4-3.8-5.1-5.7-3.8-4.3-7.8-8.7-11.9-13-2.9-3-7-6.7-13-8-6.9-1.5-14.3.9-20.4 6.5-7.5 7-11.9 16-16.1 24.8l-.9 1.8c-4.5 9.3-8.7 18.8-12.7 28l-1.7 3.8c-.5 1.1-1 2.2-1.5 3.3-5.5 12.3-10.4 24.7-15.2 36.6-3.6 9.1-7.4 18.5-11.4 27.9-2.5 6.1-5 12.5-4.7 19.4zm133-85.9c.8 1.8 1.6 3.6 2.5 5.4l29.1 61.4c3.6 7.5 6.2 14.5 8.2 21.4 2.4 8.5 1.8 13.9-1.9 17.6-1.8 1.8-4.3 2.9-7 3.1-7.4.5-12.4-5.2-14.8-8.7-2.6-3.9-4.5-8.5-6.2-12.9-.6-1.5-2.1-2.5-3.7-2.5-.1 0-.3 0-.4 0l-66.7 5.5c-1.6.1-3 1.2-3.5 2.8-3 9.9-6.7 22.3-14.7 28.3-3.8 2.9-9.4 3.7-14 2.1-3.5-1.2-8.7-5.4-4.9-19.8 1.8-6.7 5.4-17.5 7.8-23.6 3.5-9.1 6.9-18.2 10.4-27.3l11.9-31.4c.7-1.8 1.4-3.7 2.1-5.6 1.3-3.5 2.6-7 4-10.5v-.1c.1-.2.2-.4.3-.6 4.2-10.3 9.2-20.2 17.1-27.5.3-.3.6-.6.9-.8.1-.1.1-.1.2-.1.3-.2.5-.4.8-.6 0 0 .1 0 .1-.1 9.1-6.8 19.6-4 26.7 1.2.1.1.1.1.2.2.2.1.4.3.6.4.2.2.4.3.6.5 0 0 .1.1.1.1.3.3.6.5.9.8 5.9 4.9 9.7 13.3 13.3 21.3zm-63.5-53.8c2-1.8 7.2-6 13.3-4.6 3.1.7 5.8 2.4 9 5.8 4 4.1 7.9 8.5 11.6 12.7 1 1.2 2.1 2.3 3.1 3.5-.5-.1-1-.1-1.6-.2-4.7-.4-9.1.3-13.3 2.1-.1 0-.2.1-.2.1-.4.2-.7.3-1.1.5-.2.1-.3.2-.5.2-.3.2-.6.3-.9.5-.2.1-.4.2-.6.3-.3.2-.5.3-.8.5-.2.1-.4.3-.6.4-.3.2-.5.4-.8.5-.2.1-.4.3-.6.4-.3.2-.6.4-.8.7-.2.1-.3.2-.5.4-.4.4-.9.7-1.3 1.1-.3.3-.6.5-.8.8l-18.4-19.2c1.9-2.3 3.7-4.5 5.8-6.5zm-57.4 123.5c4-9.5 7.8-19 11.5-28.1 4.7-11.9 9.6-24.1 15.1-36.3.5-1.1 1-2.2 1.5-3.3l1.7-3.8c4-9.2 8.2-18.6 12.6-27.7l.9-1.8c1.4-3 2.9-6 4.4-8.9l17.4 18.1c-7.5 9.5-12 21-16.2 32.3-.4.9-.7 1.9-1 2.8-.4 1.1-.9 2.3-1.3 3.4-.3.7-.5 1.4-.8 2.1l-5.1 13.4-7 18.3c-2.4 6.3-4.8 12.6-7.1 18.8-1 2.7-2.1 5.4-3.1 8.2-2.4 6.4-6.1 17.3-8 24.3-1 3.6-1.5 7-1.6 10.1-3.2-3.2-6.7-6.9-10.5-11.2-5-5.6-7.2-9-7.4-14.7-.4-5.4 1.8-10.8 4-16z"/><path d="m615.9 107.9c-.1 0-.1 0 0 0-2.5 0-4.9 1.6-6 4-7.5 16-13.7 35.6-20 55.9-.7 2.3-.2 4.7 1.2 6.5 1.3 1.5 3.2 2.4 5.1 2.4h.7l39.1-4.3c2.3-.3 4.4-1.6 5.6-3.6s1.5-4.5.7-6.6c-6.8-17.9-12.7-33-21.4-51.1-.9-2-2.9-3.2-5-3.2zm-18 60.7c5.6-18.2 11.2-35.6 17.7-50.1 7.5 16 13 29.9 19.1 46.1z"/><path d="m392.6 434.4-14.7-16.2c7.5-4.1 14.6-12 19.2-19.7.2-.4.4-.8.7-1.1.2-.4.4-.7.6-1.1.1-.1.1-.2.2-.3.1-.2.2-.5.4-.7.1-.2.2-.3.2-.5.1-.2.2-.4.3-.6s.1-.3.2-.5.2-.4.3-.6.1-.3.2-.5.2-.4.3-.7c0-.1.1-.2.1-.4.1-.3.3-.7.4-1 6.5-19.1 4.9-45.8-13.3-61.4l-20.7-20.4c-6.8-6.7-14.6-14.4-24.5-18.3-10.7-4.2-22.7-3.4-33.3-2.7-.9.1-1.8.1-2.7.2-14.6.9-30.2 3.3-47.9 7.3-2.7.6-5.4 1.3-7.9 2.9-8.5 5.3-9.6 16.2-9.7 25.2v.1l.1 6.5v.1l3.9 96.6c.3 6.4 1.5 14.2 8.7 23.4l.2.2 27.3 30.3c.8 1 1.6 1.9 2.6 2.6 3.5 2.9 8 4.4 12.7 4.4 2.5 0 5.1-.4 7.6-1.3 7.5-2.7 12.4-8.9 13.3-17.1.4-4.1.2-8-.1-11.8-.1-1.6-.2-3.1-.3-4.6-.2-5.3-.4-10.6-.6-15.9l-.1-3.3c-.1-2-.2-3.5-.2-4.6 3.3-.3 6.2-.7 9.1-1.2 3.7-.5 7.4-1.1 12.1-1.4 6 9 12.9 17.4 19.7 25.4l2 2.4c1.5 1.7 2.8 3.5 4.3 5.4 3.1 4 6.2 8.2 10.2 11.7 5.8 5.2 13.8 7.7 20.7 6.5 5.7-1 10.3-4.3 13.3-9.7 6.9-12.4-3.9-23.2-11-30.3-1.9-1.1-3-2.3-3.9-3.3zm-132.5-131.3c17.2-3.9 32.5-6.2 46.6-7.1.9-.1 1.8-.1 2.7-.2 10.3-.7 20.9-1.4 29.9 2.2 8.4 3.3 15.3 10 21.9 16.5l5.4 5.3c-.1 0-.2 0-.3 0-.4-.1-.8-.1-1.2-.2-.2 0-.4-.1-.5-.1-.6-.1-1.2-.2-1.7-.2-.1 0-.1 0-.2 0-.5-.1-1-.1-1.6-.2-.2 0-.4 0-.6-.1-.4 0-.8-.1-1.2-.1-.2 0-.4 0-.7 0-.4 0-.8 0-1.1-.1-.2 0-.4 0-.6 0-.4 0-.9 0-1.3-.1-.2 0-.3 0-.5 0-.6 0-1.2 0-1.7 0-.1 0-.2 0-.4 0-.5 0-.9 0-1.4 0-.2 0-.4 0-.6 0-.4 0-.8 0-1.2 0-.2 0-.4 0-.6 0-.4 0-.8 0-1.2 0-.2 0-.3 0-.5 0-.5 0-1 0-1.5 0-.1 0-.1 0-.2 0-.6 0-1.1 0-1.7.1-.1 0-.2 0-.4 0-.4 0-.9 0-1.3.1-.2 0-.3 0-.5 0-.4 0-.8 0-1.1.1-.2 0-.3 0-.5 0-.4 0-.8 0-1.3.1-.1 0-.2 0-.3 0-.5 0-1 .1-1.5.1-4.1.3-8.3.6-12.5 1.1-11 1.3-22.7 3.3-35.4 6.2-2.7.6-5.4 1.3-7.9 2.9-.6.4-1.1.8-1.6 1.2-7.6-8.1-11.7-12.7-18.6-20.4-1.6-1.8-3.4-3.8-5.4-6 1.5-.5 2.8-.8 4.3-1.1zm-.4 142c-6.6-8.4-6.8-15.1-7-18.7l-3.9-96.5-.1-6.5c0-4.5.3-9.5 1.9-13.4 1.8 2 3.4 3.8 4.9 5.5 7.1 8 11.3 12.7 19.6 21.4-1.3 2.7-2.1 5.7-2.5 8.8 0 .2-.1.4-.1.6-.1.5-.1 1.1-.2 1.6-.2 2.3-.3 4.6-.3 6.7v.1l.1 6.5v.1l3.2 82.5.8 19.4c-5.6-6.1-11.9-13.1-16.4-18.1zm140.2 19.1c-1.8 3.2-4.4 5.1-7.7 5.7-4.4.8-10.1-1.1-14-4.6-3.4-3-6.2-6.7-9.1-10.5-1.4-1.9-2.9-3.8-4.5-5.7l-2-2.4c-7.1-8.4-14.3-17.2-20.3-26.6-.8-1.2-2.1-1.9-3.6-1.8-6 .3-10.6 1-15 1.6-3.9.6-7.6 1.1-12.3 1.4-1.3.1-3.7 1.1-3.7 4.2v.9c0 .7 0 1.5.1 2.5.1 1.9.2 4 .2 5l.1 3.3c.2 5.3.4 10.6.6 15.9.1 1.6.2 3.2.3 4.8.3 3.6.5 7.1.1 10.4-.4 3.6-2.1 8.4-8 10.5-4.5 1.6-9.4.9-12.6-1.7-.2-.2-.4-.4-.6-.6-.1-.1-.4-.5-.9-1-.2-.3-.4-.5-.6-.8 0-.1-.1-.1-.1-.2-.2-.2-.3-.5-.5-.8-.1-.1-.1-.3-.2-.4-.1-.3-.3-.5-.4-.8s-.3-.6-.4-1c0-.1-.1-.3-.1-.4-.1-.3-.2-.6-.2-.9 0-.1-.1-.3-.1-.4-.1-.3-.1-.6-.2-1 0-.1 0-.3-.1-.4-.1-.5-.1-.9-.1-1.4l-4.1-105.9-.1-6.5c0-3.4.2-7 1-10.3 0-.1 0-.2.1-.3 0-.2.1-.4.2-.5.1-.2.1-.5.2-.7 0-.1.1-.3.1-.4.1-.3.2-.5.3-.8v-.1c.9-2.3 2.2-4.1 4.1-5.3 1.5-.9 3.4-1.4 5.5-1.9 6.4-1.4 12.5-2.7 18.4-3.7h.2.2c9.8-1.7 19-2.8 27.8-3.3 12-.7 26.6-1.6 37.6 3.6 1.6.7 3.1 1.6 4.4 2.6.4.3.7.5 1.1.8.1 0 .1.1.2.1 11.7 9.4 20.3 29.7 12.1 53.6-3.2 9.3-14.2 22.4-23.2 24.9-1.3.4-2.4 1.4-2.8 2.7s-.1 2.8.9 3.8l18.5 20.3c1 1.2 2.3 2.4 3.5 3.7 7.8 7.8 13.4 14.2 9.7 20.8z"/><path d="m360.9 354.2c-6.2-5.8-16.1-5.3-21.5-5-3.4.2-6.7.6-9.2.9-2.4.3-4.9.5-7.3.8-4 .4-8.2.9-12.4 1.4-2 .3-3.5 2-3.4 4l.9 40.2c0 1.1.5 2.2 1.4 2.9.7.6 1.7 1 2.6 1h.4c3.4-.4 6.4-.7 9.3-1 7.1-.7 13.2-1.3 20.3-2.8 11.7-2.5 24.4-10.2 25.2-24 .5-7.3-1.9-14.2-6.3-18.4zm-1.6 18c-.2 3-2.1 13-19 16.7-6.6 1.4-12.2 2-19.3 2.7-1.7.2-3.4.3-5.1.5l-.7-32.3c2.9-.4 5.8-.7 8.6-1 2.4-.3 4.9-.5 7.4-.8 2.4-.3 5.5-.6 8.7-.8 5.7-.3 12.1-.4 15.6 2.8 2.7 2.5 4.1 7.2 3.8 12.2z"/><path d="m216 360.5c-3.1-6.1-8.7-11.9-15.4-16.3l-27.9-28.7c-.1-.1-.3-.3-.5-.4-7.2-5.4-15.6-9.1-23.1-10s-15.9-.8-26.5.5c-7.9.9-15.8 1.9-23.7 2.8-4.8.6-9.6 1.2-14.3 1.7-3 .4-8.9 1.3-12.4 2.8-11.8 4.8-10.7 18.6-10 27.7.1 1.4.2 2.7.3 3.9.5 12.1.8 24.5 1 36.5.1 6 .2 12.1.4 18.2l1.4 49.2c-.3 8.9 2.1 15.6 7.9 22.2 0 0 .1.1.1.1l28.6 29.2c.1.1.1.1.2.2.3.4.7.7 1.1 1.1s.1.1.1.1c3.5 3.2 8.1 5.1 13.2 5.1h.1c9.7 0 17.3-5.5 19.7-14.3 1.1-4 1.1-7.8 1-11.6 0-.6 0-1.2 0-1.7 0-4 0-8 0-12 0-.7-.1-3.4-.1-6.9-.1-3.9-.2-9.6-.2-13.2 1.2-.1 2.5-.2 3.8-.3 11-.9 23.4-1.9 34.1-4.4 9.4-2.2 21.4-5.8 31-14.3 9.2-8.2 14.2-18.3 15.7-31.7 1.3-13.3-.6-25.4-5.6-35.5zm-130.4-42.5c4.8-.6 9.6-1.2 14.4-1.7 7.9-1 15.8-1.9 23.7-2.8 9.9-1.2 17.7-1.3 24.6-.5 6 .7 13.1 3.8 19 8.3l14.8 15.3h-.1c-.5-.1-1-.2-1.6-.2-.5-.1-.9-.1-1.4-.2-7-.7-15-.5-24.7.6-.1 0-.2 0-.3 0-1.1.1-2.3.3-3.4.4-6.8.8-13.6 1.6-20.4 2.5-4.7.6-9.5 1.1-14.2 1.7-.1 0-.3 0-.4.1-2.7.3-7.4 1.1-10.7 2.2-.5.1-.9.3-1.3.5-.3.1-.6.3-1 .4 0 0-.1 0-.1.1-1.1.6-2.2 1.2-3 2-2.1-2.3-4.5-4.8-7-7.5-5.5-5.9-11.6-12.6-17.6-18.6.2-.1.3-.2.5-.2 2.1-1 6.9-2 10.2-2.4zm-12.3 130.4c0-.1 0-.2 0-.3l-1.4-49.3c-.2-6-.3-12.2-.4-18.2-.2-12-.5-24.4-1-36.6-.1-1.3-.2-2.7-.3-4.1-.4-4.9-.6-9.3.1-12.8 5.5 5.7 11.2 11.8 16.3 17.3 2.9 3.2 5.7 6.2 8.1 8.7-.6 1.6-1 3.3-1.2 5v.1c0 .1 0 .3-.1.4 0 .2-.1.4-.1.6 0 .4-.1.8-.1 1.3-.1.7-.1 1.4-.1 2.1v1.6.1.2 1.2c0 .5 0 1 .1 1.5 0 1 .1 1.9.2 2.8 0 .6.1 1.2.1 1.8 0 .4.1.8.1 1.2.1.9.1 1.8.2 2.6.2 4.5.3 9.1.5 13.7v1.2c.1 2 .1 3.9.2 5.9.1 5.3.2 10.5.3 15.7.1 3 .1 6 .2 9.1.1 3 .1 6.1.2 9.1l1.3 52.5-17.3-17.7c-4.5-5-6.2-9.7-5.9-16.7zm140.2-53.6c-1.3 11.6-5.4 19.8-13.1 26.7-8.2 7.3-18.5 10.4-27.5 12.5-10.1 2.3-21.7 3.3-33 4.2-2.5.2-5 .4-7.5.6-.4 0-3.6.4-3.6 4.4v1.3c0 1 0 2.5.1 4.2.1 3.3.1 7.6.2 11.1.1 3.3.1 6.2.1 6.8v12 1.8c0 3.4.1 6.5-.7 9.4-1.5 5.3-6 8.4-12.1 8.4-4.3 0-8-2.1-10.1-5.9-.2-.3-.3-.6-.4-.8-.7-1.6-1.2-3.5-1.4-5.5-.1-.5-.1-1.1-.1-1.6l-1.4-54.4c-.1-4.5-.2-9-.3-13.5 0-1.6-.1-3.1-.1-4.7-.1-3-.1-6-.2-9.1-.2-9.1-.4-18.4-.8-27.6 0-.7-.1-1.4-.1-2.2 0-.6-.1-1.3-.1-1.9-.6-8.5-.8-15.4 3.2-18.6.6-.5 1.2-.8 2-1.1 1-.4 2.4-.8 4-1.1 2-.4 4.2-.8 6-1h.3c.3 0 .7-.1 1-.1 4.4-.5 8.8-1.1 13.2-1.6 1.5-.2 3.1-.4 4.6-.6 6.1-.7 12.3-1.5 18.4-2.2.3 0 .5-.1.8-.1.7-.1 1.3-.2 2-.2.2 0 .4 0 .6-.1.4 0 .9-.1 1.3-.1.3 0 .5 0 .8-.1.4 0 .8-.1 1.1-.1s.5 0 .8-.1c.4 0 .7-.1 1-.1s.5 0 .8-.1c.3 0 .7 0 1-.1h.8 1 .7 1.6.8.9.5 1.9.2c.7 0 1.4.1 2 .1h.5c.7 0 1.3.1 1.9.1h.4c.7.1 1.3.1 2 .2.3 0 .7.1 1 .1 4.9.8 10.5 3.1 15.5 6.4 0 0 .1 0 .1.1 5.6 3.7 10.3 8.4 12.7 13.2 4.4 8.9 6 19.6 4.7 31z"/><path d="m160.2 364.9c-3.4.2-6.7.6-9.2.9-2.4.3-4.9.5-7.3.8-4 .4-8.2.9-12.4 1.4-2 .3-3.5 2-3.4 4l.9 40.2c0 1.1.5 2.2 1.4 2.9.7.6 1.7 1 2.6 1h.4c3.4-.4 6.4-.7 9.3-1 7.1-.7 13.2-1.3 20.3-2.8 11.7-2.5 24.4-10.2 25.2-24 .4-7.4-2-14.3-6.4-18.5-6.2-5.8-16.1-5.2-21.4-4.9zm19.9 23c-.2 3-2.1 13-19 16.7-6.6 1.4-12.2 2-19.3 2.7-1.7.2-3.3.3-5.1.5l-.7-32.3c2.9-.4 5.8-.7 8.6-1 2.4-.3 4.9-.5 7.4-.8 2.4-.3 5.5-.6 8.7-.8 5.7-.3 12.1-.4 15.6 2.8 2.6 2.5 4.1 7.2 3.8 12.2z"/><path d="m253.7 186.1c-4.5.2-9.1-.3-12.8-1.5-.9-.3-1.9-.6-2.8-.9-11.9-4-26.7-8.9-36.1 7.3-7.7 13.3-.2 24.3 7.1 32.5 8.5 9.4 22.5 20.4 34.3 26.7 1.4 1.2 2.9 2.3 4.6 3.4 10.4 6.4 23.8 9.5 40.9 9.5h1.4c21.7-.2 51.9-9.1 65.6-33.5 11.4-20.3 10.4-38.3-2.7-52-5.5-5.8-11.8-10.2-18.9-13.4l-31.1-35.2c9.4-.1 18.8 2 28.5 6.6.3.2.7.3 1 .4 9.5 3.8 20.3-.5 25.1-10.1 2-4 2.3-8.4.8-12.5-1.5-4-4.4-7.3-7.4-9.9-3.1-3.1-6.2-6.3-8.9-9-3.5-3.5-6.9-6.9-10.4-10.4-2.8-2.8-5.7-5.7-8.5-8.5l-.2-.2c-2-2-4.2-4.1-6.8-5.9-2.5-1.7-5.2-3.1-7.8-4.2-10.7-4.4-22.4-4.9-32.5-4.9-22.4.2-43.1 8.5-56.9 22.7-6.4 6.6-11.3 14.3-14.7 23.1l-.2.6c-.4 1-.8 2-1.1 3.2-1.6 6-2 11-1.5 15.7.5 4.5 2.2 9 4.9 13 1.9 2.8 4.2 4.9 6.5 6.9.9.8 1.7 1.5 2.5 2.3 3.8 3.8 7.7 7.5 11.5 11.3 1.4 1.4 2.8 2.7 4.2 4.1 4.7 4.6 9.4 9.2 14 14 .1.1.1.2.2.3s.2.3.3.4c.3.4.6.8.9 1.2.1.1.2.2.3.4.4.5.8.9 1.2 1.4.1.1.2.2.2.3l1.1 1.1.4.4c.4.4.8.7 1.2 1.1.1.1.2.1.2.2.5.4 1 .8 1.5 1.2.1.1.3.2.4.3s.3.3.5.5zm-15.2 6.1c7.9 2.5 18.8 2.5 26.6 0 .3.1.6.2.9.3s.6.2.9.3c.5.2.9.3 1.4.5.3.1.6.2.8.3.5.2 1.1.3 1.6.5.2.1.5.1.7.2.8.2 1.5.4 2.3.6h.2c.7.2 1.4.4 2.1.5.3.1.5.1.8.2.5.1 1 .2 1.5.3.3.1.6.1 1 .2.5.1.9.2 1.4.3.3.1.7.1 1 .2.4.1.9.2 1.3.2.4.1.7.1 1.1.2s.9.1 1.3.2.7.1 1.1.2.9.1 1.3.2.7.1 1.1.2.8.1 1.3.2c.4 0 .7.1 1.1.1.4.1.8.1 1.2.2.4 0 .8.1 1.1.1.4 0 .7.1 1.1.1s.9.1 1.3.1c.2 0 .4 0 .6.1 1.3.1 2.6.3 3.8.4 1.5.2 3.1.3 4.8.4 7.8.4 13.4 1.1 15.6 5.2.2.5.4 1 .6 1.5.9 3.4-.4 7.7-3.2 10.6-.2.2-.4.4-.7.6-1.9 1.7-4.1 3-6.7 3.9-3.3 1.2-7.1 1.8-11.5 1.8-8.9.1-19.2-2.7-28.2-5.2-2-.6-3.8-1.4-5.4-2.1-4-1.8-8.1-3.6-14.3-1.8l-23.4-25.1c2.3.6 4.9 1.4 7.6 2.3 1 .3 1.9.6 2.9 1zm-23.5 25.9c-8.6-9.5-10.3-16-6.1-23.2 2.2-3.8 4.7-5.8 7.6-6.7l27.5 29.5c-4.3 3.4-7.5 8.8-8.1 14.3-.2 1.4-.2 2.7-.1 4-7.8-5.5-15.6-12.1-20.8-17.9zm84.2-60.2c-7.5.1-16.8-1.5-21.7-5.4 0 0-.1-.1-.2-.1-2-2-3.4-5-3.3-7.2.1-2.5 1.2-5.1 3.1-7.3.3-.3.5-.6.8-.9 0 0 .1-.1.1-.1 4.3-4.3 10.4-6 15.6-7l26.1 29.6c-6.2-1.2-13-1.8-20.5-1.6zm51.7-35.6c-2.9 5.8-9.4 8.5-15.1 6.2-.2-.1-.4-.2-.6-.3-13.2-6.1-25.8-8.4-38.6-6.9-.1 0-.3 0-.4 0h-.1c-1 .1-1.9.3-2.9.4h-.1s0 0-.1 0c-9.1 1.4-15.8 4.5-20.7 9.5 0 0-.1.1-.1.1-.4.4-.8.8-1.1 1.3-.5.5-.9 1.1-1.3 1.7-2.1 3.1-3.4 6.7-3.6 10.2-.3 4.7 1.3 8.9 4.5 12.2.5.5 1 1 1.6 1.4 7.6 7.1 18 7.6 27.2 7.4h2c11.4 0 20.8 1.6 28.9 5.1.1 0 .1.1.2.1 1.1.5 2.1 1 3.1 1.5 5.1 2.7 9.7 6.1 13.9 10.5 10.6 11.1 11.1 25.4 1.5 42.6-12 21.4-39.1 29.3-58.7 29.5-16.2.2-28.7-2.6-38.1-8.4-1.5-.9-2.7-1.8-3.7-2.7-2.9-3.3-4.2-8.5-3.3-13.2.4-2.2 1.7-6.2 5.6-8.1.3-.2.6-.3.9-.4.1 0 .2-.1.3-.1.2-.1.4-.2.6-.2.1 0 .2-.1.3-.1.2-.1.3-.1.5-.2.1 0 .2-.1.3-.1.2 0 .3-.1.4-.1s.2-.1.3-.1.3-.1.4-.1h.3c.2 0 .3 0 .4-.1h.2.6.7.2c.2 0 .3 0 .5.1.1 0 .2 0 .2.1.1 0 .3.1.4.1s.2 0 .3.1c.1 0 .3.1.4.1s.2.1.3.1c.1.1.3.1.4.2.1 0 .2.1.3.1.2.1.3.1.5.2.1 0 .2.1.3.1.2.1.4.2.6.2.1 0 .1.1.2.1.3.1.5.2.8.4.9.4 1.9.8 3 1.3 1.1.4 2.2.8 3.5 1.2 8.3 2.4 17.7 4.9 26.6 5.4h.2c.6 0 1.1.1 1.7.1h.6 1 .4c3.7 0 7.1-.4 10.2-1.1 1-.2 2-.5 3-.8.5-.2 1-.3 1.4-.5 1.4-.5 2.7-1.2 4-1.9 1.7-.9 3.3-2.1 4.7-3.3.3-.3.6-.6.9-.8 4.3-4.2 6.4-10.3 5.9-15.9-.2-2-.7-3.9-1.6-5.6-4.4-8.5-14.7-9.1-22.2-9.5-1.6-.1-3.1-.2-4.5-.3-2-.2-4-.4-6.1-.7-.2 0-.3 0-.5-.1-.5-.1-1-.1-1.4-.2-.3 0-.6-.1-.8-.1-.4-.1-.9-.1-1.3-.2-.3 0-.7-.1-1-.1-.4-.1-.8-.1-1.2-.2s-.7-.1-1.1-.2-.8-.1-1.2-.2-.7-.1-1.1-.2-.8-.1-1.1-.2c-.4-.1-.8-.1-1.1-.2-.4-.1-.7-.1-1.1-.2s-.8-.1-1.1-.2c-.4-.1-.7-.1-1.1-.2s-.8-.2-1.1-.2c-.4-.1-.7-.2-1.1-.2-.4-.1-.8-.2-1.1-.3-.4-.1-.7-.2-1.1-.3s-.7-.2-1.1-.3c-.3-.1-.7-.2-1-.3-.4-.1-.7-.2-1.1-.3-.3-.1-.7-.2-1-.3-.4-.1-.7-.2-1.1-.4-.3-.1-.7-.2-1-.3-.4-.1-.7-.3-1.1-.4-.3-.1-.6-.2-1-.4-.6-.2-1.2-.5-1.8-.8-.5-.2-1-.5-1.5-.7-.2-.1-.3-.2-.5-.2-.3-.2-.7-.4-1-.5-.2-.1-.3-.2-.5-.3-.3-.2-.6-.4-.9-.6-.2-.1-.3-.2-.5-.3-.4-.2-.7-.5-1.1-.7-.1-.1-.2-.1-.2-.2-.4-.3-.9-.6-1.3-1-.1-.1-.2-.2-.3-.3-.3-.2-.6-.5-.9-.7-.1-.1-.3-.2-.4-.4-.1-.1-.3-.3-.4-.4-.2-.3-.3-.6-.6-.8-1.3-1.4-2.5-2.8-3.8-4.2-.1-.1-.2-.2-.2-.3-.3-.5-.6-1-1-1.5-.1-.1-.1-.2-.2-.3-.4-.6-.7-1.2-1-1.9-.1-.2-.2-.3-.2-.5-.3-.5-.5-1-.7-1.5-.1-.2-.2-.4-.2-.6-.3-.7-.6-1.4-.8-2-.5-1.3-.9-2.7-1.2-4.1-.5-2.1-.8-4.3-.9-6.5-.5-8.1 1.3-16.6 5.2-24.2.7-1.3 1.4-2.5 2.1-3.7.2-.2.3-.5.5-.7.1-.2.2-.3.3-.5 3.2-4.7 7.2-8.9 11.8-12.2 14-10 31-12.3 42.8-12.4h1.8c8.9 0 18.8.6 27.6 4.3.3.1.6.3.9.4.2.1.4.2.6.3h.1c2 .9 4.9 2.6 7.7 4.9 0 0 .1 0 .1.1 1.4 1.2 2.6 2.4 3.5 3.7.7.9 1.2 1.8 1.5 2.8.4 2.5.3 4.5-.8 6.6zm-114.2 35.3c-1.4-1.4-2.8-2.7-4.1-4.1-3.8-3.8-7.7-7.5-11.5-11.3-.9-.9-1.8-1.7-2.7-2.5-2-1.8-3.9-3.5-5.2-5.5-2-2.9-3.2-6.1-3.5-9.4-.4-3.7 0-7.8 1.3-12.9.2-.7.5-1.5.8-2.3l.2-.6c3-7.7 7.4-14.7 13-20.5 12.3-12.5 31-19.9 51.3-20.1h1.8c8.9 0 18.8.6 27.6 4.3 2.2.9 4.4 2.1 6.5 3.5 2 1.3 3.7 3.1 5.6 4.9l.2.2c2.8 2.8 5.7 5.6 8.5 8.5 1.3 1.3 2.6 2.6 3.9 3.9-.1 0-.2 0-.3-.1-.8-.2-1.7-.3-2.5-.5-.2 0-.5-.1-.7-.1-.6-.1-1.3-.2-1.9-.3-.3 0-.6-.1-1-.1-.6-.1-1.3-.2-1.9-.2-.3 0-.6-.1-.9-.1-.7-.1-1.4-.1-2.2-.2-.4 0-.7 0-1.1-.1-.5 0-1-.1-1.5-.1-.4 0-.7 0-1.1-.1-.7 0-1.5-.1-2.2-.1-.4 0-.7 0-1.1 0-.5 0-1 0-1.4 0-.3 0-.7 0-1 0-.8 0-1.5 0-2.2 0-18.6.2-35 4.9-47.4 13.9-4.9 3.5-9.2 7.9-12.7 12.8-1.6 2.3-3.1 4.6-4.3 7.1-.4.7-.7 1.5-1.1 2.2-.1.2-.2.5-.3.7-.2.5-.5 1.1-.7 1.6-.1.3-.2.5-.3.8-.2.6-.4 1.1-.6 1.7-.1.2-.2.5-.2.7-.3.8-.5 1.6-.7 2.4 0 .1 0 .2-.1.2-.2.7-.4 1.4-.6 2.1-.1.3-.1.5-.2.8-.1.6-.2 1.1-.4 1.7-.1.3-.1.5-.2.8-.1.6-.2 1.2-.3 1.8 0 .2-.1.4-.1.7-.1.8-.2 1.6-.3 2.4v.4c-.1.7-.1 1.3-.1 2v.8 1.7.8c0 .6 0 1.2.1 1.8v.6c.1.8.1 1.6.2 2.4 0 .2 0 .3.1.5.1.5.1.9.2 1.4-.2-.4-.4-.6-.7-.9z"/></g></svg>