<svg width="225" height="40" viewBox="0 0 225 40" xmlns="http://www.w3.org/2000/svg" xmlns:xlink="http://www.w3.org/1999/xlink"><title>banner__logo</title><defs><path id="a" d="M.015.044h213.828V30H.015"/></defs><g transform="translate(6 5)" fill="none" fill-rule="evenodd"><path d="M205.64 18.62c4.105-1.357 6.414-4.42 6.414-8.648v-.08c0-2.476-.826-4.642-2.397-6.27-1.915-1.89-4.758-2.888-8.22-2.888L187.91.73v4.13l5.144 6.694V5.926h7.99c3.45 0 5.35 1.508 5.35 4.246v.08c0 2.642-2.034 4.284-5.31 4.284h-5.73l11.344 14.778h7.145L205.64 18.62M29.53.75v5.06h8.447v23.483h5.636V5.81h8.447V.75H29.53M71.757 24.157c-1.306 0-2.37-1.072-2.37-2.39V17.04h9.238v-4.9h-9.237V5.81H82.74V.75H63.752v22.032c0 3.59 2.895 6.51 6.454 6.51H83.44v-5.135H71.758M102.138 24.157V.75h-5.636v25.383c0 1.742 1.405 3.16 3.133 3.16h14.22v-5.136h-11.717M132.5 24.157V.75h-5.635v25.383c0 1.742 1.405 3.16 3.132 3.16h14.22v-5.136H132.5" fill="#FFF"/><mask id="b" fill="#fff"><use xlink:href="#a"/></mask><path d="M170.282 3.937a8.173 8.173 0 0 0-6.44-3.186h-7.807v28.547h5.65V6.51h2.262c.732 0 1.433.35 1.875.94l16.775 21.847h7.165l-19.48-25.36M18.966 17.16a7.596 7.596 0 0 0-2.046-2.393 11.057 11.057 0 0 0-2.698-1.503 56.516 56.516 0 0 0-2.77-.99 40.976 40.976 0 0 1-2.122-.7c-.617-.226-1.146-.49-1.57-.783a3.2 3.2 0 0 1-.963-1.02c-.225-.386-.34-.865-.34-1.424 0-.607.133-1.13.394-1.553A3.33 3.33 0 0 1 7.886 5.73c.432-.277.92-.486 1.45-.62 1.443-.364 2.897-.244 4.326.446.884.428 1.576.962 2.058 1.587l.295.384 3.323-4.52-.263-.222a10.9 10.9 0 0 0-3.5-1.975C14.1.302 12.625.044 11.193.044c-1.272 0-2.542.17-3.775.504a10.6 10.6 0 0 0-3.345 1.546 8.183 8.183 0 0 0-2.404 2.65C1.054 5.82.743 7.11.743 8.582c0 1.36.222 2.517.658 3.44a7.406 7.406 0 0 0 1.7 2.334A8.645 8.645 0 0 0 5.44 15.87c.84.37 1.69.693 2.522.955l2.452.825c.75.252 1.405.55 1.95.887.524.325.946.714 1.253 1.154.292.42.44.964.44 1.616 0 .688-.134 1.266-.397 1.717a3.71 3.71 0 0 1-1.063 1.162c-.44.312-.943.537-1.49.67a7.112 7.112 0 0 1-1.667.205c-1.03 0-2.096-.265-3.17-.788-1.068-.52-1.932-1.234-2.567-2.122l-.243-.34L0 26.33l.224.225c1.03 1.036 2.292 1.85 3.75 2.42C5.723 29.654 7.535 30 9.363 30c1.377 0 2.71-.19 3.958-.565 1.26-.378 2.374-.955 3.316-1.715a8.448 8.448 0 0 0 2.28-2.893c.567-1.16.855-2.528.855-4.07 0-1.42-.27-2.63-.804-3.597" fill="#FFF" mask="url(#b)"/></g></svg>