<svg height="40" viewBox="0 0 225 40" width="225" xmlns="http://www.w3.org/2000/svg" xmlns:xlink="http://www.w3.org/1999/xlink"><mask id="a" fill="#fff"><path d="m.015.044h213.828v29.956h-213.828" fill="#fff" fill-rule="evenodd"/></mask><g fill="#fff" fill-rule="evenodd" transform="translate(6 5)"><path d="m205.64 18.62c4.105-1.357 6.414-4.42 6.414-8.648v-.08c0-2.476-.826-4.642-2.397-6.27-1.915-1.89-4.758-2.888-8.22-2.888l-13.527-.004v4.13l5.144 6.694v-5.628h7.99c3.45 0 5.35 1.508 5.35 4.246v.08c0 2.642-2.034 4.284-5.31 4.284h-5.73l11.344 14.778h7.145zm-176.11-17.87v5.06h8.447v23.483h5.636v-23.483h8.447v-5.06zm42.227 23.407c-1.306 0-2.37-1.072-2.37-2.39v-4.727h9.238v-4.9h-9.237v-6.33h13.352v-5.06h-18.988v22.032c0 3.59 2.895 6.51 6.454 6.51h13.234v-5.135h-11.682m30.38 0v-23.407h-5.636v25.383c0 1.742 1.405 3.16 3.133 3.16h14.22v-5.136zm30.362 0v-23.407h-5.635v25.383c0 1.742 1.405 3.16 3.132 3.16h14.22v-5.136z"/><path d="m170.282 3.937a8.173 8.173 0 0 0 -6.44-3.186h-7.807v28.547h5.65v-22.788h2.262c.732 0 1.433.35 1.875.94l16.775 21.847h7.165zm-151.316 13.223a7.596 7.596 0 0 0 -2.046-2.393 11.057 11.057 0 0 0 -2.698-1.503 56.516 56.516 0 0 0 -2.77-.99 40.976 40.976 0 0 1 -2.122-.7c-.617-.226-1.146-.49-1.57-.783a3.2 3.2 0 0 1 -.963-1.02c-.225-.386-.34-.865-.34-1.424 0-.607.133-1.13.394-1.553a3.33 3.33 0 0 1 1.035-1.064c.432-.277.92-.486 1.45-.62 1.443-.364 2.897-.244 4.326.446.884.428 1.576.962 2.058 1.587l.295.384 3.323-4.52-.263-.222a10.9 10.9 0 0 0 -3.5-1.975c-1.475-.508-2.95-.766-4.382-.766-1.272 0-2.542.17-3.775.504a10.6 10.6 0 0 0 -3.345 1.546 8.183 8.183 0 0 0 -2.404 2.65c-.615 1.076-.926 2.366-.926 3.838 0 1.36.222 2.517.658 3.44a7.406 7.406 0 0 0 1.7 2.334 8.645 8.645 0 0 0 2.339 1.514c.84.37 1.69.693 2.522.955l2.452.825c.75.252 1.405.55 1.95.887.524.325.946.714 1.253 1.154.292.42.44.964.44 1.616 0 .688-.134 1.266-.397 1.717a3.71 3.71 0 0 1 -1.063 1.162c-.44.312-.943.537-1.49.67a7.112 7.112 0 0 1 -1.667.205c-1.03 0-2.096-.265-3.17-.788-1.068-.52-1.932-1.234-2.567-2.122l-.243-.34-3.46 4.519.224.225c1.03 1.036 2.292 1.85 3.75 2.42 1.749.679 3.561 1.025 5.389 1.025 1.377 0 2.71-.19 3.958-.565 1.26-.378 2.374-.955 3.316-1.715a8.448 8.448 0 0 0 2.28-2.893c.567-1.16.855-2.528.855-4.07 0-1.42-.27-2.63-.804-3.597" mask="url(#a)"/></g></svg>