<svg width="907" height="405" viewBox="0 0 907 405" fill="none" xmlns="http://www.w3.org/2000/svg">
<g clip-path="url(#clip0)">
<path d="M439.524 405L470.607 314.569C473.848 305.35 478.304 299.339 483.383 296.115V295.804H458.766V296.115C464.001 299.339 467.07 303.03 467.226 308.262C467.069 310.887 466.545 313.476 465.668 315.955L442.593 384.242L447.517 376.455L430.285 316.002C429.194 312.768 428.518 309.408 428.275 306.004C428.24 303.964 428.786 301.957 429.847 300.214C430.909 298.472 432.444 297.067 434.273 296.162V295.851H400.137V296.162C405.06 299.386 408.753 304.151 411.37 313.074L438.449 405.062L439.524 405ZM415.826 313.946L393.359 388.54L400.589 376.689L379.056 316.251C377.825 312.716 376.283 308.465 376.283 305.942C376.361 303.888 376.987 301.892 378.097 300.162C379.206 298.431 380.759 297.029 382.593 296.1V295.788H347.194V296.1C352.118 299.323 354.891 303.17 358.428 313.012L391.661 405H392.892L417.68 321.016L415.826 313.946Z" fill="#ffffff"/>
<path d="M345.247 255.658H330.305V155.042C330.332 154.879 330.32 154.711 330.269 154.553C330.218 154.395 330.131 154.252 330.014 154.135C329.896 154.017 329.753 153.93 329.595 153.879C329.437 153.828 329.269 153.816 329.106 153.843C328.202 153.843 327.75 154.154 327.454 155.4L301.248 255.72H270.959L244.738 155.338C244.442 154.154 243.99 153.781 243.102 153.781C242.214 153.781 241.902 154.092 241.902 154.98V255.595H226.914V147.941H258.37L284.857 249.74C284.966 249.965 285.137 250.155 285.349 250.287C285.561 250.419 285.807 250.489 286.057 250.487C286.306 250.485 286.55 250.414 286.762 250.282C286.974 250.15 287.145 249.963 287.257 249.74L313.79 147.941H345.247V255.658Z" fill="#ffffff"/>
<path d="M786.282 147.941V255.735H755.122L724.49 154.902C724.35 154.154 724.054 153.843 723.151 153.843C722.987 153.816 722.819 153.828 722.661 153.879C722.503 153.93 722.36 154.017 722.243 154.135C722.125 154.252 722.038 154.395 721.987 154.553C721.936 154.711 721.924 154.879 721.951 155.042V255.657H706.978V147.941H738.139L768.848 248.696C769.004 249.444 769.3 249.74 770.203 249.74C771.107 249.74 771.388 249.444 771.388 248.541V147.941H786.282Z" fill="#ffffff"/>
<path d="M209.697 201.76C209.697 235.444 186.482 257.9 153.607 257.9C120.733 257.9 97.4399 235.444 97.4399 201.76C97.4399 168.076 120.655 145.698 153.607 145.698C186.56 145.698 209.697 168.076 209.697 201.76ZM112.335 201.76C112.335 228.701 128.819 244.414 153.53 244.414C176.744 244.414 194.724 228.701 194.724 201.76C194.724 174.819 176.744 159.091 153.53 159.091C128.819 159.091 112.335 174.804 112.335 201.76Z" fill="#ffffff"/>
<path d="M551.875 161.333H517.427V255.658H502.454V161.333H467.99V147.941H551.875V161.333Z" fill="#ffffff"/>
<path d="M643.986 147.941V255.735H629.014V206.993H581.15V255.657H566.162V147.941H581.15V193.6H629.076V147.941H643.986Z" fill="#ffffff"/>
<path d="M682.938 147.941V255.735H667.949V147.941H682.938Z" fill="#ffffff"/>
<path d="M857.875 257.9C887.68 257.9 905.208 240.225 905.208 215.371V206.245H848.729V219.716H898.166L890.827 215.682C890.531 233.046 879.734 244.414 857.875 244.414C833.304 244.414 818.487 227.284 818.487 201.76C818.487 176.237 831.513 159.091 856.675 159.091C877.491 159.091 890.952 169.992 891.419 190.673H907C905.8 161.785 884.689 145.621 856.675 145.621C825.078 145.621 803.499 168.076 803.499 201.76C803.499 235.444 825.67 257.9 857.875 257.9Z" fill="#ffffff"/>
<path d="M43.4383 145.621C22.763 145.621 5.23503 157.285 5.23503 176.299C5.23503 195.313 20.6753 203.255 33.4045 205.887L48.8291 209.173C60.2184 211.571 70.8443 214.421 70.8443 226.396C70.8443 237.297 62.3062 244.803 45.0898 244.803C26.8139 244.803 16.4685 234.634 14.9728 219.653H0C0.747861 241.813 16.4685 257.838 44.934 257.838C71.1403 257.838 85.8327 244.663 85.8327 225.649C85.8327 209.033 73.6955 199.892 55.8715 195.858L42.5346 192.853C32.2048 190.61 20.2234 187.62 20.2234 175.723C20.2234 164.495 29.5717 158.593 43.4383 158.593C59.159 158.593 68.1489 166.519 68.8967 178.51H83.8851C83.1373 156.849 65.7495 145.621 43.4383 145.621Z" fill="#ffffff"/>
<path d="M368.166 147.832V148.143C375.411 151.678 376.953 157.067 376.953 167.236V236.223C376.953 246.392 375.395 251.795 368.166 255.315V255.626H456.149L461.088 226.365H460.776C452.456 242.374 443.061 251.624 424.723 251.624H389.278L395.51 253.929V202.648H417.073C429.537 202.648 433.713 203.878 438.792 218.049H439.104V181.407H438.792C433.713 195.718 429.553 198.646 417.073 198.646H395.447V150.37L383.731 151.928H420.859C438.73 151.928 447.206 159.48 455.526 174.415H455.837L450.587 146.695C448.748 147.77 445.663 147.925 442.126 147.925L368.166 147.832Z" fill="#ffffff"/>
<path d="M393.983 0H367.2V0.311455C374.445 3.84646 375.972 9.23463 375.972 19.3725V85.3697C375.972 96.8935 371.983 103.823 364.442 107.358V107.67H392.285V107.358C384.494 103.979 380.443 96.8935 380.443 84.9025V5.38816L376.751 6.94544L454.466 108.776H456.772V22.3001C456.772 10.7608 460.776 3.84646 468.317 0.311455V0H440.272V0.311455C448.281 3.69074 452.269 10.7608 452.269 22.7673V83.828L454.435 79.0627L393.983 0Z" fill="#ffffff"/>
</g>
<defs>
<clipPath id="clip0">
<rect width="907" height="405" fill="white"/>
</clipPath>
</defs>
</svg>
