<svg width="116" height="60" viewBox="0 0 116 60" fill="none" xmlns="http://www.w3.org/2000/svg">
<path d="M64.9839 16.4874C76.1326 20.3693 84.0025 16.2369 89.2711 11.2297C92.6027 8.06319 106.815 -4.52535 111.656 1.70969C112.67 3.01502 112.832 4.76229 112.885 6.40705C113.039 11.2958 109.989 18.6835 107.404 22.8569C105.134 26.52 103.115 29.0805 105.258 33.3838C106.836 36.5503 108.514 40.2772 106.994 43.7717C104.974 48.4144 98.327 51.0091 93.5025 51.0524C91.0434 51.0752 88.4171 50.0204 87.2814 47.8631C86.3494 46.0953 86.4593 43.7489 84.9504 42.4277C84.0597 41.6486 82.7958 41.4322 81.6074 41.4618C78.356 41.5392 75.4411 43.3116 72.7461 45.1158C62.6576 51.8657 54.0596 59.0187 32.875 59.0187C9.18088 59.0165 1.24697 45.3436 0.143315 35.0809C-0.990102 24.5381 4.28773 6.87633 27.1896 6.87633C42.1484 6.87633 57.8972 14.018 64.9839 16.4874Z" fill="white"/>
<path d="M10.0703 33.8628C10.0703 33.8628 16.8113 39.993 22.9707 37.9724C29.13 35.9518 42.3945 25.2449 56.1649 42.2984C51.961 34.3412 44.2789 27.0833 32.0288 30.6894C23.4813 33.2067 16.6647 38.1911 10.0703 33.8628Z" fill="black"/>
<path d="M22.9727 37.9753C22.9727 37.9753 29.9311 49.4408 56.1669 42.3014C56.1669 42.3014 34.5701 46.7003 22.9727 37.9753Z" fill="black"/>
<path d="M23.539 38.7131C23.539 38.7131 21.05 39.7383 19.9258 41.3078C19.9258 41.3078 22.7032 39.2826 24.4137 39.6039L23.539 38.7131Z" fill="black"/>
<path d="M24.705 39.467C24.705 39.467 22.5412 41.064 21.8359 42.8591C21.8359 42.8591 24.0341 40.2234 25.772 40.1186L24.705 39.467Z" fill="black"/>
<path d="M25.8226 40.2778C25.8226 40.2778 24.2519 42.4556 24.1328 44.3806C24.1328 44.3806 25.4174 41.2027 27.0385 40.5763L25.8226 40.2778Z" fill="black"/>
<path d="M27.4192 41.2209C27.4192 41.2209 26.2766 43.196 26.3774 45.0754C26.3774 45.0754 27.1605 42.0843 28.5183 41.6424L27.4192 41.2209Z" fill="black"/>
<path d="M29.1711 42.3303C29.1711 42.3303 28.5712 44.1619 28.9765 45.6791C28.9765 45.6791 29.107 43.0866 30.1466 42.467L29.1711 42.3303Z" fill="black"/>
<path d="M31.4148 42.9658C31.4148 42.9658 30.8401 44.3349 31.2476 45.8521C31.2476 45.8521 31.353 43.7221 32.3902 43.1025L31.4148 42.9658Z" fill="black"/>
<path d="M35.0842 42.9567C31.6473 42.9567 28.8516 40.1752 28.8516 36.7582C28.8516 33.3388 31.6473 30.5596 35.0842 30.5596C38.5211 30.5596 41.3146 33.3411 41.3146 36.7582C41.3146 40.1775 38.5211 42.9567 35.0842 42.9567ZM35.0842 31.1017C31.9496 31.1017 29.3965 33.6395 29.3965 36.7582C29.3965 39.8768 31.9496 42.4146 35.0842 42.4146C38.2189 42.4146 40.7696 39.8768 40.7696 36.7582C40.7696 33.6395 38.2189 31.1017 35.0842 31.1017Z" fill="black"/>
<path d="M35.0826 40.027C36.8973 40.027 38.3684 38.5634 38.3684 36.758C38.3684 34.9526 36.8973 33.489 35.0826 33.489C33.268 33.489 31.7969 34.9526 31.7969 36.758C31.7969 38.5634 33.268 40.027 35.0826 40.027Z" fill="black"/>
<path d="M33.6659 36.6235C33.8651 36.5666 34.0666 36.5119 34.2658 36.4481C35.1381 36.1725 36.0586 35.7784 36.9905 35.988C37.2882 36.054 37.9728 36.603 37.9843 36.0517C37.9889 35.8103 37.6889 36.0335 37.6179 35.8034C37.5309 35.521 37.9522 35.1177 37.7736 34.8831C37.2493 34.1883 37.6889 33.5641 37.9728 33.3363C38.2911 33.0812 39.3421 32.7691 39.9557 33.8489C40.1572 34.202 39.9695 33.3409 40.2145 33.6666C40.1824 33.268 39.6581 33.2725 39.5276 32.8921C39.4749 32.7349 39.468 32.5663 39.4314 32.4069C39.3673 32.1244 39.1566 31.99 38.9597 31.7986C38.7307 31.5754 38.4628 31.3931 38.1743 31.2564C37.4714 30.9216 36.6746 30.835 35.896 30.8122C35.287 30.794 34.671 30.8099 34.0757 30.9307C32.9492 31.1608 31.9348 31.7508 30.9479 32.3362C30.4946 32.6051 29.8534 32.8192 29.5604 33.2862C29.4527 33.457 29.4596 33.6598 29.4138 33.8489C29.3314 34.1883 29.281 34.5072 29.2696 34.858C29.2444 35.5665 28.8322 37.1794 29.4001 37.266C29.4001 36.4367 29.9153 35.7624 30.7579 35.7693C31.6555 35.7738 31.8135 36.9447 31.8272 37.1976C31.8409 37.4528 33.1003 36.8924 33.2033 37.127C33.6933 36.6873 33.0545 36.7967 33.6659 36.6235Z" fill="black"/>
<path d="M33.1839 37.0182C33.9262 37.0182 34.528 36.4195 34.528 35.681C34.528 34.9424 33.9262 34.3438 33.1839 34.3438C32.4416 34.3438 31.8398 34.9424 31.8398 35.681C31.8398 36.4195 32.4416 37.0182 33.1839 37.0182Z" fill="white"/>
<path d="M29.3772 17.7115C40.0794 20.7459 61.7517 30.5211 65.1268 31.8332C64.5772 29.7602 63.9911 24.5639 61.7631 22.7187C59.7528 21.0557 50.8915 17.281 47.3768 15.864C45.8632 15.2535 44.3475 14.643 42.7859 14.1714C36.1433 12.1599 28.7635 12.7682 22.0569 14.0803C16.2021 15.2262 7.8125 17.6341 7.8125 17.6341C7.8125 17.6341 22.1691 15.6704 29.3772 17.7115Z" fill="black"/>
<path d="M53.062 38.8998C54.2686 40.1163 55.9699 42.2417 53.8405 42.686L56.1668 42.301L52.9727 37.3804L53.062 38.8998Z" fill="black"/>
<path d="M94.2534 16.0485C95.9913 14.0233 98.9863 11.7772 103.193 10.465C107.793 9.02985 111.859 7.2074 113.434 2.67407C114.421 4.63776 114.028 8.4945 113.604 9.87501C113.041 11.7111 111.573 13.1645 109.911 14.1395C108.248 15.1145 106.38 15.6772 104.546 16.2741C101.349 17.3129 98.1688 18.4906 95.3181 20.2652C92.4766 22.033 89.9556 23.8121 88.4375 26.8055C89.2526 22.9693 91.2516 19.5476 94.2534 16.0485Z" fill="black"/>
<path d="M16.0742 43.1484C16.0742 43.1484 23.5777 50.2309 32.748 50.9849C32.748 50.9872 20.4155 52.7664 16.0742 43.1484Z" fill="black"/>
<path d="M86.5262 43.1484C86.5262 43.1484 83.3663 36.296 87.7558 31.1909C91.6117 26.7054 98.9732 22.1812 108.118 24.3226C113.662 25.6211 116 23.3499 116 23.3499C116 23.3499 115.136 29.5872 107.573 27.6053C102.898 26.3797 98.7304 26.3432 95.3966 28.0563C92.3467 29.6213 84.5685 34.3278 86.5262 43.1484Z" fill="black"/>
<path d="M104.256 31.1907C104.418 33.1908 103.898 38.321 96.537 38.4918C89.5258 38.6536 86.4141 36.7195 86.4141 36.7195C86.4141 36.7195 95.7447 41.8429 103.115 38.2754C106.893 36.4439 104.256 31.1907 104.256 31.1907Z" fill="black"/>
<path d="M93.053 38.8127C89.6161 38.8127 86.8203 36.0312 86.8203 32.6141C86.8203 29.197 89.6161 26.4155 93.053 26.4155C96.4898 26.4155 99.2833 29.197 99.2833 32.6141C99.2833 36.0312 96.4898 38.8127 93.053 38.8127ZM93.053 26.9577C89.9183 26.9577 87.3653 29.4955 87.3653 32.6141C87.3653 35.7328 89.9183 38.2705 93.053 38.2705C96.1876 38.2705 98.7384 35.7328 98.7384 32.6141C98.7384 29.4955 96.1876 26.9577 93.053 26.9577Z" fill="black"/>
<path d="M93.0514 35.883C94.8661 35.883 96.3372 34.4194 96.3372 32.614C96.3372 30.8086 94.8661 29.345 93.0514 29.345C91.2367 29.345 89.7656 30.8086 89.7656 32.614C89.7656 34.4194 91.2367 35.883 93.0514 35.883Z" fill="black"/>
<path d="M91.6299 32.4795C91.8291 32.4225 92.0306 32.3679 92.2298 32.3041C93.1022 32.0284 94.0227 31.6343 94.9546 31.8439C95.2523 31.91 95.9369 32.459 95.9484 31.9077C95.9529 31.6662 95.653 31.8895 95.582 31.6594C95.495 31.3769 95.9163 30.9737 95.7377 30.7391C95.2134 30.0443 95.653 29.4201 95.9369 29.1923C96.2552 28.9371 97.3062 28.625 97.9198 29.7048C98.1213 30.0579 97.9336 29.1968 98.1786 29.5226C98.1465 29.1239 97.6222 29.1285 97.4916 28.748C97.439 28.5909 97.4688 28.584 97.4321 28.4223C97.368 28.1398 97.0749 28.2628 96.878 28.0715C96.649 27.8482 95.9346 27.65 95.6461 27.5133C94.9432 27.1785 94.6386 26.691 93.8578 26.6682C93.2488 26.65 92.6328 26.6659 92.0375 26.7866C90.911 27.0167 89.8966 27.6067 88.9097 28.1922C88.4564 28.461 87.8152 28.6751 87.5222 29.1421C87.4145 29.313 87.4214 29.5158 87.3756 29.7048C87.2932 30.0443 87.2428 30.3632 87.2314 30.714C87.2153 31.1901 87.0459 31.6753 87.055 32.1446C87.0642 32.6822 87.0963 33.2996 87.2085 33.8281C87.3115 34.3133 87.829 35.1676 88.177 35.523C88.0854 35.2473 87.7374 34.4022 88.4426 33.7917C89.0196 33.2928 90.0088 33.7917 90.2607 34.3498C90.4461 34.1243 90.4095 33.4796 90.6408 33.3019C90.8331 33.1538 91.1125 33.0536 91.2727 32.8782C91.362 32.7802 91.3094 32.6754 91.346 32.6139C91.3987 32.5273 91.5269 32.5091 91.6299 32.4795Z" fill="black"/>
<path d="M91.095 33.5505C91.7235 33.5505 92.233 33.0436 92.233 32.4183C92.233 31.793 91.7235 31.2861 91.095 31.2861C90.4665 31.2861 89.957 31.793 89.957 32.4183C89.957 33.0436 90.4665 33.5505 91.095 33.5505Z" fill="white"/>
<path d="M104.573 32.9106C104.573 32.9106 106.599 33.1817 107.939 34.3276C107.939 34.3276 105.34 33.2113 104.344 33.9699L104.573 32.9106Z" fill="black"/>
<path d="M104.558 34.3279C104.558 34.3279 106.72 34.8359 108.121 36.0706C108.121 36.0706 105.371 34.7038 104.281 35.2847L104.558 34.3279Z" fill="black"/>
<path d="M104.142 35.6443C104.142 35.6443 106.159 36.5851 107.309 37.9292C107.309 37.9292 104.868 36.1477 103.707 36.3505L104.142 35.6443Z" fill="black"/>
<path d="M103.705 36.5808C103.705 36.5808 105.189 37.8451 105.533 39.6949C105.533 39.6949 104.074 37.385 103.039 37.1617L103.705 36.5808Z" fill="black"/>
<path d="M102.897 37.5762C102.897 37.5762 103.603 38.8359 103.497 40.3759C103.497 40.3759 103.033 38.3211 102.227 37.7926L102.897 37.5762Z" fill="black"/>
<path d="M101.516 38.1023C101.516 38.1023 101.887 39.3871 101.603 40.8154C101.603 40.8154 101.55 38.813 100.863 38.2344L101.516 38.1023Z" fill="black"/>
<path d="M32.3867 23.3499C32.3867 23.3499 60.7336 28.2864 59.7193 38.1025C59.7193 38.1025 50.8694 27.161 32.3867 23.3499Z" fill="black"/>
<path d="M104.342 20.593C104.342 20.593 95.3663 20.552 89.168 28.4888C89.168 28.4888 94.4939 17.3741 104.342 20.593Z" fill="black"/>
<path d="M22.5391 28.1727C22.5391 28.1727 28.6481 24.5073 38.1688 26.6874C38.1688 26.6874 29.3098 21.605 22.5391 28.1727Z" fill="black"/>
</svg>
