<svg viewBox="0 0 209.2 40.9" xmlns="http://www.w3.org/2000/svg"><path d="m13 13.1h-6.6v5h6.6v13c0 3.6-1.8 5.3-4.3 5.3-2.3 0-3.9-1.2-5.5-3.2l-3.2 3.2c1.8 2.5 4.5 4.4 8.7 4.4 2.7 0 5-.8 6.6-2.4s2.5-4 2.5-7.3v-18zm36.8 5.8 4.7 10.8h-9.3zm-2.1-5.6-11.9 27.2h4.9l2.8-6.5h12.8l2.7 6.5h5l-11.9-27.2zm57.5-.2-8.3 12.9-8.3-12.9h-5.1v27.3h4.7v-19.5l8.5 12.8h.2l8.6-12.9v19.6h4.8v-27.3zm28 0v27.4h20.4v-4.3h-15.6v-7.4h13.7v-4.3h-13.7v-7.1h15.4v-4.3zm51.7 11.5c-5.2-1.2-6.5-2.2-6.5-4.3v-.1c0-1.8 1.6-3.2 4.4-3.2 2.5 0 5 1 7.4 2.8l2.6-3.6c-2.8-2.2-5.9-3.4-9.9-3.4-5.4 0-9.3 3.2-9.3 7.9v.1c0 5 3.3 6.8 9.1 8.2 5.1 1.2 6.2 2.2 6.2 4.2v.1c0 2.1-1.9 3.4-4.8 3.4-3.4 0-6-1.3-8.6-3.6l-2.9 3.4c3.3 2.9 7.2 4.4 11.4 4.4 5.7 0 9.8-3 9.8-8.2v-.1c-.2-4.5-3.2-6.6-8.9-8m19.1-24.6c-2.9 0-5.2 2.3-5.2 5.2s2.3 5.2 5.2 5.2 5.2-2.3 5.2-5.2c0-2.8-2.3-5.2-5.2-5.2m0 8.4c-1.7 0-3.1-1.4-3.1-3.1s1.4-3.1 3.1-3.1 3.1 1.4 3.1 3.1-1.4 3.1-3.1 3.1" fill="#fff"/></svg>