<svg width="133" height="28" viewBox="0 0 133 28" fill="none" xmlns="http://www.w3.org/2000/svg">
  <path fill-rule="evenodd" clip-rule="evenodd" d="M0 1.60925V5.14156H5.52349L5.53713 21.4529H9.31492L9.30129 5.14156H14.7566V1.60925H0Z" fill="#ffffff"/>
  <path d="M24.9713 6.76489H28.8037L28.8173 21.4396H24.985L24.9713 6.76489ZM24.4667 2.6325C24.4667 1.92331 24.6986 1.33686 25.1486 0.873163C25.5987 0.409462 26.1715 0.177612 26.8671 0.177612C27.5899 0.177612 28.1763 0.409462 28.6264 0.873163C29.0765 1.33686 29.2947 1.92331 29.2947 2.6325C29.2947 3.32805 29.0765 3.88722 28.6264 4.35092C28.1763 4.80098 27.6035 5.03283 26.8671 5.03283C26.1579 5.03283 25.5851 4.80098 25.135 4.35092C24.6986 3.88722 24.4667 3.31441 24.4667 2.6325Z" fill="#ffffff"/>
  <path d="M38.9782 18.1935C39.5647 18.1935 40.0966 18.0844 40.6012 17.8662C41.1058 17.648 41.5286 17.3479 41.8968 16.9797C42.2651 16.6115 42.5378 16.175 42.756 15.6704C42.9606 15.1658 43.0697 14.6339 43.0697 14.0475C43.0697 13.4883 42.9606 12.9564 42.756 12.4382C42.5515 11.9335 42.2651 11.4971 41.8968 11.1152C41.5286 10.747 41.1058 10.447 40.6012 10.2288C40.0966 10.0105 39.5647 9.90144 38.9782 9.90144C38.4191 9.90144 37.8872 10.0105 37.3826 10.2288C36.8779 10.447 36.4552 10.747 36.0869 11.1152C35.7187 11.4835 35.4323 11.9199 35.2141 12.4245C34.9959 12.9291 34.8868 13.461 34.8868 14.0475C34.8868 14.6339 34.9959 15.1658 35.2141 15.6704C35.4323 16.175 35.7187 16.5978 36.0869 16.9797C36.4552 17.3479 36.8779 17.648 37.3826 17.8662C37.8872 18.0844 38.4191 18.1935 38.9782 18.1935ZM38.2554 21.7258C37.3553 21.7258 36.4688 21.5485 35.6232 21.1939C34.7777 20.8393 34.0139 20.3347 33.3729 19.6664C32.7183 18.9981 32.2 18.1935 31.7909 17.2661C31.3954 16.3387 31.1908 15.2749 31.1908 14.102C31.1908 12.9428 31.3817 11.8926 31.7772 10.9516C32.1591 10.0105 32.691 9.20589 33.332 8.53761C33.9866 7.86934 34.7367 7.35109 35.5959 6.99649C36.4552 6.6419 37.3553 6.4646 38.2963 6.4646C39.2783 6.4646 40.1511 6.65554 40.9149 7.05104C41.6786 7.44655 42.3196 7.97845 42.8379 8.674V6.76464H46.5611L46.5747 21.4394H42.8515V19.4619C42.3196 20.1847 41.665 20.7438 40.8876 21.153C40.0829 21.5212 39.2101 21.7258 38.2554 21.7258Z" fill="#ffffff"/>
  <path d="M53.4072 0H49.6567V21.4121H53.4072V0Z" fill="#ffffff"/>
  <path fill-rule="evenodd" clip-rule="evenodd" d="M63.9496 21.6845C62.8858 21.6845 61.9175 21.5891 61.0447 21.3845C60.1718 21.1799 59.3808 20.9072 58.6852 20.5389C57.976 20.1707 57.335 19.7479 56.7622 19.2433C56.1894 18.7387 55.6712 18.1932 55.1938 17.5931L58.5352 14.9336C59.1899 15.9701 59.9536 16.7475 60.8537 17.2658C61.7402 17.784 62.7903 18.0568 63.9769 18.0568C65.0679 18.0568 65.8862 17.8249 66.4181 17.3612C66.9637 16.8975 67.2364 16.3111 67.2364 15.5746C67.2364 15.1245 67.1273 14.7427 66.8955 14.4426C66.6636 14.1426 66.3499 13.8971 65.9408 13.6789C65.5316 13.4743 65.0407 13.297 64.4679 13.1606C63.895 13.0243 63.2677 12.8742 62.5721 12.7106C61.822 12.5469 61.0856 12.356 60.3491 12.1241C59.599 11.8923 58.9307 11.5786 58.3306 11.1695C57.7306 10.7603 57.2396 10.2421 56.8577 9.58742C56.4758 8.94642 56.2849 8.11449 56.2849 7.10526C56.2849 6.28696 56.4622 5.52322 56.8032 4.81403C57.1441 4.10484 57.6351 3.47748 58.2625 2.94559C58.8898 2.4137 59.6263 2.00455 60.4855 1.69087C61.3447 1.37719 62.2857 1.22717 63.3222 1.22717C64.1951 1.22717 64.9861 1.309 65.7089 1.45902C66.4318 1.60904 67.1137 1.84089 67.741 2.1273C68.3684 2.4137 68.9412 2.76829 69.4867 3.20472C70.0186 3.6275 70.5369 4.11848 71.0551 4.69129L67.932 7.14617C67.4001 6.38243 66.7864 5.78235 66.0635 5.34592C65.3407 4.9095 64.4133 4.67765 63.2813 4.67765C62.1903 4.67765 61.4129 4.9095 60.9355 5.3732C60.4582 5.8369 60.2127 6.39607 60.2127 7.05071C60.2127 7.44621 60.3355 7.77353 60.5673 8.03266C60.7992 8.29179 61.1265 8.49636 61.522 8.67366C61.9175 8.85095 62.3948 9.00098 62.9404 9.12372C63.4859 9.24646 64.0587 9.38285 64.6861 9.53287C65.4498 9.69653 66.2135 9.9011 66.9909 10.1329C67.7683 10.3648 68.4775 10.7058 69.1049 11.1422C69.7322 11.5786 70.2368 12.1378 70.646 12.8333C71.0415 13.5152 71.2461 14.4017 71.2461 15.4655C71.2461 16.3111 71.0688 17.1157 70.7278 17.8658C70.3869 18.6159 69.8959 19.2842 69.2549 19.857C68.6275 20.4298 67.8501 20.8799 66.9637 21.2072C66.0499 21.5209 65.0543 21.6845 63.9496 21.6845Z" fill="#ffffff"/>
  <path d="M80.7114 18.1662C81.2706 18.1662 81.8025 18.0571 82.2934 17.8389C82.7844 17.6207 83.2072 17.3206 83.5891 16.9524C83.9573 16.5842 84.2437 16.1477 84.4619 15.6431C84.6665 15.1385 84.7756 14.6066 84.7756 14.0202C84.7756 13.4337 84.6665 12.9018 84.4619 12.3972C84.2573 11.9062 83.9573 11.4698 83.5891 11.088C83.2208 10.7197 82.7844 10.4197 82.2934 10.2015C81.8025 9.98326 81.2842 9.87415 80.7114 9.87415C80.125 9.87415 79.5931 9.98326 79.0885 10.2015C78.5838 10.4197 78.1611 10.7197 77.7928 11.088C77.4246 11.4562 77.1518 11.9062 76.9336 12.4109C76.729 12.9155 76.6199 13.4474 76.6199 14.0202C76.6199 14.6066 76.729 15.1385 76.9336 15.6431C77.1382 16.1477 77.4246 16.5705 77.7928 16.9524C78.1611 17.3206 78.5838 17.6207 79.0885 17.8389C79.5931 18.0571 80.1386 18.1662 80.7114 18.1662ZM81.4751 21.6985C80.4796 21.6985 79.5794 21.5212 78.7884 21.1666C77.9974 20.812 77.3428 20.2938 76.8518 19.6119V27.2766H73.1285L73.1149 6.72371H76.8109V8.75581C77.3018 8.03299 77.9428 7.46018 78.7339 7.03739C79.5249 6.61461 80.425 6.41003 81.4206 6.41003C82.348 6.41003 83.2345 6.58733 84.0801 6.94193C84.9256 7.29652 85.6894 7.80114 86.344 8.46941C86.9986 9.13768 87.5169 9.94234 87.9124 10.8834C88.3079 11.8244 88.4988 12.8746 88.4988 14.0338C88.4988 15.2067 88.2943 16.2705 87.8988 17.1979C87.5032 18.1253 86.9714 18.9299 86.3304 19.5982C85.6757 20.2665 84.9256 20.7848 84.0937 21.1393C83.2618 21.5212 82.3889 21.6985 81.4751 21.6985Z" fill="#ffffff"/>
  <path d="M98.1273 18.1525C98.7001 18.1525 99.2456 18.0434 99.7503 17.8252C100.255 17.6069 100.678 17.3069 101.046 16.9387C101.414 16.5704 101.687 16.134 101.905 15.6294C102.11 15.1248 102.219 14.5929 102.219 14.0065C102.219 13.4473 102.11 12.9154 101.905 12.3971C101.701 11.8925 101.414 11.4561 101.046 11.0742C100.678 10.706 100.255 10.406 99.7503 10.1877C99.2456 9.96953 98.7137 9.86042 98.1273 9.86042C97.5681 9.86042 97.0362 9.96953 96.5316 10.1877C96.027 10.406 95.6042 10.706 95.236 11.0742C94.8678 11.4425 94.5814 11.8789 94.3632 12.3835C94.1449 12.8881 94.0358 13.42 94.0358 14.0065C94.0358 14.5929 94.1449 15.1248 94.3632 15.6294C94.5814 16.134 94.8678 16.5568 95.236 16.9387C95.6042 17.3069 96.027 17.6069 96.5316 17.8252C97.0226 18.0434 97.5545 18.1525 98.1273 18.1525ZM97.3908 21.6848C96.4907 21.6848 95.6042 21.5075 94.7587 21.1529C93.9131 20.7983 93.1493 20.2937 92.5084 19.6254C91.8674 18.9571 91.3355 18.1525 90.9263 17.2251C90.5308 16.2977 90.3262 15.2339 90.3262 14.061C90.3262 12.9018 90.5172 11.8516 90.9127 10.9106C91.3082 9.96953 91.8264 9.16487 92.4674 8.4966C93.1221 7.82832 93.8722 7.31007 94.7314 6.95548C95.5906 6.60088 96.4907 6.42358 97.4318 6.42358C98.4137 6.42358 99.2866 6.61452 100.05 7.01003C100.814 7.40554 101.455 7.93743 101.973 8.63298V6.73726H105.697L105.71 21.412H101.987V19.4345C101.455 20.1573 100.8 20.7165 100.023 21.1256C99.2184 21.4938 98.3455 21.6848 97.3908 21.6848Z" fill="#ffffff"/>
  <path fill-rule="evenodd" clip-rule="evenodd" d="M122.267 0.0269775H118.543L118.557 21.439H122.294L122.28 17.9067L124.544 15.3836L128.704 21.439H133L127.204 13.0106L132.714 6.76427H128.227L122.28 13.5834L122.267 0.0269775Z" fill="#ffffff"/>
  <path fill-rule="evenodd" clip-rule="evenodd" d="M22.6259 6.76465C21.6848 6.76465 20.8665 6.96922 20.171 7.37837C19.4754 7.78752 18.9435 8.42851 18.5753 9.30136V6.76465H14.8793L14.893 21.4394H18.6162V13.6929C18.6162 12.4654 18.9026 11.8517 19.4891 11.3198C20.0619 10.7879 20.8392 10.5152 21.7939 10.5152C22.094 10.5152 22.3667 10.5561 22.6395 10.597V6.76465H22.6259Z" fill="#ffffff"/>
  <path fill-rule="evenodd" clip-rule="evenodd" d="M116.607 6.76465C115.666 6.76465 114.848 6.96922 114.152 7.37837C113.457 7.78752 112.925 8.42851 112.556 9.30136V6.76465H108.861L108.874 21.4394H112.597V13.6929C112.597 12.4654 112.884 11.8517 113.47 11.3198C114.043 10.7879 114.82 10.5152 115.775 10.5152C116.075 10.5152 116.348 10.5561 116.621 10.597V6.76465H116.607Z" fill="#ffffff"/>
</svg>
